<?xml version="1.0" encoding="UTF-8" standalone="no"?>
<!-- Created with Inkscape (http://www.inkscape.org/) -->

<svg
   xmlns:dc="http://purl.org/dc/elements/1.1/"
   xmlns:cc="http://creativecommons.org/ns#"
   xmlns:rdf="http://www.w3.org/1999/02/22-rdf-syntax-ns#"
   xmlns:svg="http://www.w3.org/2000/svg"
   xmlns="http://www.w3.org/2000/svg"
   xmlns:sodipodi="http://sodipodi.sourceforge.net/DTD/sodipodi-0.dtd"
   xmlns:inkscape="http://www.inkscape.org/namespaces/inkscape"
   width="71.108864mm"
   height="65.321518mm"
   viewBox="0 0 71.108864 65.321518"
   version="1.1"
   id="svg5211"
   inkscape:version="0.92.3 (unknown)"
   sodipodi:docname="audiobook.svg">
  <defs
     id="defs5205" />
  <sodipodi:namedview
     id="base"
     pagecolor="#ffffff"
     bordercolor="#666666"
     borderopacity="1.0"
     inkscape:pageopacity="0.0"
     inkscape:pageshadow="2"
     inkscape:zoom="0.7"
     inkscape:cx="199.20959"
     inkscape:cy="152.68035"
     inkscape:document-units="mm"
     inkscape:current-layer="layer1"
     showgrid="false"
     inkscape:window-width="1680"
     inkscape:window-height="995"
     inkscape:window-x="0"
     inkscape:window-y="209"
     inkscape:window-maximized="1" />
  <metadata
     id="metadata5208">
    <rdf:RDF>
      <cc:Work
         rdf:about="">
        <dc:format>image/svg+xml</dc:format>
        <dc:type
           rdf:resource="http://purl.org/dc/dcmitype/StillImage" />
        <dc:title></dc:title>
      </cc:Work>
    </rdf:RDF>
  </metadata>
  <g
     inkscape:label="Ebene 1"
     inkscape:groupmode="layer"
     id="layer1"
     transform="translate(-58.500996,-98.819991)">
    <path
       inkscape:connector-curvature="0"
       style="fill:#444444;fill-opacity:1;stroke-width:0.57116061"
       id="path2"
       d="m 92.744277,157.92216 h 2.457134 v 2.37945 h -2.457134 z m 14.386393,-4.06782 H 80.814444 V 117.55993 H 107.13067 Z M 86.664273,121.83337 c 0,0.31584 0.255309,0.57115 0.57116,0.57115 h 13.517087 c 0.31585,0 0.57116,-0.25531 0.57116,-0.57115 0,-0.31587 -0.25531,-0.57118 -0.57116,-0.57118 H 87.235433 c -0.315281,0 -0.57116,0.2559 -0.57116,0.57118 z m 17.896177,27.86006 c 0,-0.31584 -0.25531,-0.57115 -0.57116,-0.57115 H 83.998665 c -0.315851,0 -0.57116,0.25531 -0.57116,0.57115 0,0.31586 0.255309,0.57118 0.57116,0.57118 h 19.990625 c 0.31585,0 0.57116,-0.2559 0.57116,-0.57118 z m 0,-3.42696 c 0,-0.31584 -0.25531,-0.57116 -0.57116,-0.57116 H 83.998665 c -0.315851,0 -0.57116,0.25532 -0.57116,0.57116 0,0.31586 0.255309,0.57117 0.57116,0.57117 h 19.990625 c 0.31585,0 0.57116,-0.25589 0.57116,-0.57117 z m 0,-3.42697 c 0,-0.31584 -0.25531,-0.57115 -0.57116,-0.57115 H 83.998665 c -0.315851,0 -0.57116,0.25531 -0.57116,0.57115 0,0.31587 0.255309,0.57118 0.57116,0.57118 h 19.990625 c 0.31585,0 0.57116,-0.2559 0.57116,-0.57118 z m 0,-3.42696 c 0,-0.31584 -0.25531,-0.57115 -0.57116,-0.57115 H 83.998665 c -0.315851,0 -0.57116,0.25531 -0.57116,0.57115 0,0.31586 0.255309,0.57117 0.57116,0.57117 h 19.990625 c 0.31585,0 0.57116,-0.25589 0.57116,-0.57117 z m 0,-3.31672 c 0,-0.31586 -0.25531,-0.57117 -0.57116,-0.57117 H 83.998665 c -0.315851,0 -0.57116,0.25531 -0.57116,0.57117 0,0.31584 0.255309,0.57115 0.57116,0.57115 h 19.990625 c 0.31585,0 0.57116,-0.25531 0.57116,-0.57115 z m 0,-3.42696 c 0,-0.31587 -0.25531,-0.57118 -0.57116,-0.57118 H 83.998665 c -0.315851,0 -0.57116,0.25531 -0.57116,0.57118 0,0.31584 0.255309,0.57115 0.57116,0.57115 h 19.990625 c 0.31585,0 0.57116,-0.25531 0.57116,-0.57115 z m 0,-3.42697 c 0,-0.31586 -0.25531,-0.57117 -0.57116,-0.57117 H 83.998665 c -0.315851,0 -0.57116,0.25531 -0.57116,0.57117 0,0.31584 0.255309,0.57116 0.57116,0.57116 h 19.990625 c 0.31585,0 0.57116,-0.25532 0.57116,-0.57116 z m 0,-3.42696 c 0,-0.31586 -0.25531,-0.57118 -0.57116,-0.57118 H 83.998665 c -0.315851,0 -0.57116,0.25532 -0.57116,0.57118 0,0.31584 0.255309,0.57115 0.57116,0.57115 h 19.990625 c 0.31585,0 0.57116,-0.25531 0.57116,-0.57115 z m 7.66269,-10.06843 v 45.38557 c 0,1.65923 -1.34965,3.00944 -3.00944,3.00944 H 78.87821 c -1.659222,0 -3.010016,-1.34965 -3.010016,-3.00944 V 115.7465 c 0,-1.65921 1.350224,-3.01001 3.010016,-3.01001 h 30.33549 c 1.65922,5.6e-4 3.00944,1.3508 3.00944,3.01001 z m -25.844448,43.93655 h 2.855804 c 0.31585,0 0.57116,-0.25531 0.57116,-0.57118 0,-0.31584 -0.25531,-0.57115 -0.57116,-0.57115 h -2.855804 c -0.315851,0 -0.57116,0.25531 -0.57116,0.57115 0,0.31587 0.255879,0.57118 0.57116,0.57118 z m 6.205661,1.76089 h 2.777554 c 0.540889,0 0.981826,-0.44038 0.981826,-0.98183 v -2.70103 c 0,-0.54089 -0.440365,-0.98183 -0.981826,-0.98183 h -2.777554 c -0.541461,0 -0.982396,0.44038 -0.982396,0.98183 v 2.70103 c 0,0.54089 0.440365,0.98183 0.982396,0.98183 z m 6.002899,-1.76089 h 2.855808 c 0.31585,0 0.57116,-0.25531 0.57116,-0.57118 0,-0.31584 -0.25531,-0.57115 -0.57116,-0.57115 h -2.855808 c -0.315851,0 -0.57116,0.25531 -0.57116,0.57115 0,0.31587 0.255879,0.57118 0.57116,0.57118 z m 9.685738,-43.26543 H 79.672124 v 38.57905 h 28.600866 z" />
    <g
       id="g6161"
       transform="matrix(1.4577568,0,0,1.4577568,58.500996,98.819991)">
      <path
         d="M 3.9782086,39.959953 V 20.45549 C 3.9782086,9.5724488 12.791843,0.75 23.685466,0.75 h 1.435884 c 10.884018,0 19.707258,8.8194548 19.707258,19.704147 v 19.704147"
         id="path5477"
         inkscape:connector-curvature="0"
         style="fill:none;fill-rule:evenodd;stroke:#444444;stroke-width:1.5;stroke-opacity:1" />
      <path
         d="m 4.0557942,26.205281 c 0,-1.581268 1.2848781,-2.863138 2.8626702,-2.863138 v 0 c 1.5810091,0 2.86267,1.284224 2.86267,2.863138 v 14.557424 c 0,1.581268 -1.2848779,2.863139 -2.86267,2.863139 v 0 c -1.5810091,0 -2.8626702,-1.284225 -2.8626702,-2.863139 z"
         id="path5479"
         inkscape:connector-curvature="0"
         style="fill:#444444;fill-opacity:1;fill-rule:evenodd;stroke:#444444;stroke-width:1.5;stroke-opacity:1" />
      <path
         d="m 0.75,29.754772 c 0,-0.913019 0.7336628,-1.653167 1.6528971,-1.653167 v 0 c 0.9128698,0 1.6528971,0.732622 1.6528971,1.653167 v 8.405413 c 0,0.913019 -0.7336629,1.653167 -1.6528971,1.653167 v 0 C 1.4900272,39.813352 0.75,39.08073 0.75,38.160185 Z"
         id="path5481"
         inkscape:connector-curvature="0"
         style="fill:#444444;fill-opacity:1;fill-rule:evenodd;stroke:#444444;stroke-width:1.5;stroke-opacity:1" />
      <path
         d="m 44.723853,29.754772 c 0,-0.913019 0.733663,-1.653167 1.652897,-1.653167 v 0 c 0.91287,0 1.652897,0.732622 1.652897,1.653167 v 8.405413 c 0,0.913019 -0.733663,1.653167 -1.652897,1.653167 v 0 c -0.91287,0 -1.652897,-0.732622 -1.652897,-1.653167 z"
         id="path5483"
         inkscape:connector-curvature="0"
         style="fill:#444444;fill-opacity:1;fill-rule:evenodd;stroke:#444444;stroke-width:1.5;stroke-opacity:1" />
      <path
         d="m 38.998513,26.205281 c 0,-1.581268 1.284878,-2.863138 2.86267,-2.863138 v 0 c 1.581009,0 2.86267,1.284224 2.86267,2.863138 v 14.557424 c 0,1.581268 -1.284878,2.863139 -2.86267,2.863139 v 0 c -1.581009,0 -2.86267,-1.284225 -2.86267,-2.863139 z"
         id="path5485"
         inkscape:connector-curvature="0"
         style="fill:#444444;fill-opacity:1;fill-rule:evenodd;stroke:#444444;stroke-width:1.5;stroke-opacity:1" />
    </g>
  </g>
</svg>
