<?xml version="1.0" encoding="UTF-8" standalone="no"?>
<svg
   xmlns:dc="http://purl.org/dc/elements/1.1/"
   xmlns:cc="http://creativecommons.org/ns#"
   xmlns:rdf="http://www.w3.org/1999/02/22-rdf-syntax-ns#"
   xmlns:svg="http://www.w3.org/2000/svg"
   xmlns="http://www.w3.org/2000/svg"
   xmlns:sodipodi="http://sodipodi.sourceforge.net/DTD/sodipodi-0.dtd"
   xmlns:inkscape="http://www.inkscape.org/namespaces/inkscape"
   version="1.1"
   x="0px"
   y="0px"
   viewBox="0 0 100 108.10672"
   xml:space="preserve"
   id="svg3045"
   inkscape:version="0.48.4 r9939"
   width="100%"
   height="100%"
   sodipodi:docname="audio.svg"><metadata
     id="metadata3061"><rdf:RDF><cc:Work
         rdf:about=""><dc:format>image/svg+xml</dc:format><dc:type
           rdf:resource="http://purl.org/dc/dcmitype/StillImage" /></cc:Work></rdf:RDF></metadata><defs
     id="defs3059" /><sodipodi:namedview
     pagecolor="#ffffff"
     bordercolor="#666666"
     borderopacity="1"
     objecttolerance="10"
     gridtolerance="10"
     guidetolerance="10"
     inkscape:pageopacity="0"
     inkscape:pageshadow="2"
     inkscape:window-width="1627"
     inkscape:window-height="1026"
     id="namedview3057"
     showgrid="false"
     fit-margin-top="0"
     fit-margin-left="0"
     fit-margin-right="0"
     fit-margin-bottom="0"
     inkscape:zoom="1.888"
     inkscape:cx="-79.260594"
     inkscape:cy="27.499251"
     inkscape:window-x="53"
     inkscape:window-y="24"
     inkscape:window-maximized="1"
     inkscape:current-layer="svg3045"
     inkscape:showpageshadow="false" /><g
     id="g3047"
     transform="matrix(1.3513514,0,0,1.3513514,-17.567569,-13.51389)"
     style="fill:#444444;fill-opacity:1"><g
       id="g3049"
       style="fill:#444444;fill-opacity:1"><path
         d="m 65,25.09 c 9.82,3.965 16.74,13.598 16.74,24.85 0,11.254 -6.92,20.884 -16.74,24.849 v 5.588 C 77.781,76.193 87,64.14 87,49.94 87,35.743 77.781,23.69 65,19.485 v 5.605 z m 0,13.195 c 3.281,2.805 5.359,6.988 5.359,11.654 0,4.668 -2.078,8.85 -5.359,11.654 v 5.685 C 70.98,63.816 75,57.349 75,49.939 75,42.533 70.98,36.066 65,32.599 v 5.686 z M 19,65.958 h 16 l 18,22.027 c 2,2.883 6.68,2.662 8,-0.604 V 12.658 C 59.379,9.394 55.121,9.133 53,11.894 L 35,34 H 19 c -5.121,0 -6,0.922 -6,5.928 v 20.023 c 0,4.886 1,6.007 6,6.007 z"
         id="path3051"
         inkscape:connector-curvature="0"
         style="fill:#444444;fill-opacity:1;fill-rule:evenodd" /></g></g></svg>