<?xml version="1.0" encoding="UTF-8" standalone="no"?>
<svg
   xmlns:dc="http://purl.org/dc/elements/1.1/"
   xmlns:cc="http://creativecommons.org/ns#"
   xmlns:rdf="http://www.w3.org/1999/02/22-rdf-syntax-ns#"
   xmlns:svg="http://www.w3.org/2000/svg"
   xmlns="http://www.w3.org/2000/svg"
   xmlns:sodipodi="http://sodipodi.sourceforge.net/DTD/sodipodi-0.dtd"
   xmlns:inkscape="http://www.inkscape.org/namespaces/inkscape"
   version="1.1"
   x="0px"
   y="0px"
   viewBox="0 0 99.999999 68.496167"
   enable-background="new 0 0 100 100"
   xml:space="preserve"
   id="svg3139"
   inkscape:version="0.48.4 r9939"
   width="100%"
   height="100%"
   sodipodi:docname="video-support noun_36452_cc.svg"><metadata
     id="metadata3151"><rdf:RDF><cc:Work
         rdf:about=""><dc:format>image/svg+xml</dc:format><dc:type
           rdf:resource="http://purl.org/dc/dcmitype/StillImage" /></cc:Work></rdf:RDF></metadata><defs
     id="defs3149" /><sodipodi:namedview
     pagecolor="#ffffff"
     bordercolor="#666666"
     borderopacity="1"
     objecttolerance="10"
     gridtolerance="10"
     guidetolerance="10"
     inkscape:pageopacity="0"
     inkscape:pageshadow="2"
     inkscape:window-width="1627"
     inkscape:window-height="1026"
     id="namedview3147"
     showgrid="false"
     inkscape:showpageshadow="false"
     fit-margin-top="0"
     fit-margin-left="0"
     fit-margin-right="0"
     fit-margin-bottom="0"
     inkscape:zoom="1.888"
     inkscape:cx="-82.497594"
     inkscape:cy="11.474095"
     inkscape:window-x="53"
     inkscape:window-y="24"
     inkscape:window-maximized="1"
     inkscape:current-layer="svg3139" /><path
     d="m 95.180069,8.2532108 c -1.2157,0 -2.31425,0.4657 -3.16138,1.20856 v -0.021 l -0.2314,0.2129 -0.02,0.019 -14.951211,13.7240912 c -0.1186,0.127201 -0.2514,0.238601 -0.3843,0.352901 -0.8414,0.72 -1.921411,1.17141 -3.115671,1.17141 -2.6614,0 -4.81994,-2.158541 -4.81994,-4.819931 V 4.8199308 C 68.496167,2.1585402 66.337627,0 63.676236,0 H 4.81993 C 2.15854,0 0,2.1585402 0,4.8199308 V 63.676237 c 0,2.66139 2.15854,4.81993 4.81993,4.81993 h 58.856306 c 2.661391,0 4.819931,-2.15854 4.819931,-4.81993 V 48.397885 c 0,-2.66139 2.15854,-4.81994 4.81994,-4.81994 1.19426,0 2.274251,0.4514 3.115671,1.17142 0.1328,0.1143 0.2643,0.2257 0.3843,0.3528 l 14.951211,13.724091 0.02,0.019 0.2314,0.2114 v -0.021 c 0.8471,0.7428 1.94568,1.20855 3.16138,1.20855 2.66139,0 4.81993,-2.15854 4.81993,-4.81993 V 13.074871 c -0.001,-2.66312 -2.15854,-4.8216602 -4.81993,-4.8216602 z M 37.898024,58.163936 c -1.00284,0.89 -2.15854,1.33427 -3.469951,1.33427 -1.35998,0 -2.54139,-0.4457 -3.55281,-1.32141 -1.0157,-0.8714 -1.5214,-2.10569 -1.5214,-3.67852 0,-1.408551 0.4929,-2.588541 1.47426,-3.539951 0.9757,-0.9543 2.17854,-1.43427 3.59995,-1.43427 1.395691,0 2.579961,0.4786 3.535661,1.43427 0.9543,0.9514 1.43427,2.1314 1.43427,3.539951 -0.0014,1.5514 -0.4986,2.78139 -1.49998,3.66566 z M 50.356415,27.275803 c -0.7686,1.42998 -1.68283,2.65425 -2.73853,3.68423 -1.05427,1.03713 -2.951391,2.777111 -5.684201,5.227071 -0.7586,0.6843 -1.35998,1.28998 -1.82141,1.81712 -0.4528,0.5143 -0.7943,0.9985 -1.01712,1.42998 -0.2214,0.4357 -0.3914,0.8671 -0.5186,1.29855 -0.1186,0.4357 -0.3043,1.19427 -0.5486,2.28425 -0.4186,2.314261 -1.74283,3.469951 -3.967091,3.469951 -1.15998,0 -2.1314,-0.3743 -2.91996,-1.13284 -0.7886,-0.7586 -1.18569,-1.878541 -1.18569,-3.369951 0,-1.86569 0.2914,-3.48281 0.8728,-4.85136 0.5743,-1.36427 1.34141,-2.56711 2.3014,-3.60423 0.9543,-1.029991 2.239961,-2.258541 3.871371,-3.684241 1.41998,-1.24712 2.44996,-2.18854 3.08138,-2.81996 0.6329,-0.6314 1.16856,-1.33855 1.60141,-2.11425 0.4343,-0.78 0.6543,-1.621411 0.6543,-2.537111 0,-1.77854 -0.6629,-3.27424 -1.98855,-4.50279 -1.32569,-1.22427 -3.02852,-1.8314 -5.11849,-1.8314 -2.449971,0 -4.245661,0.6143 -5.404211,1.84854 -1.1557,1.23284 -2.13569,3.05139 -2.93425,5.4485 -0.7571,2.519961 -2.191391,3.775661 -4.302791,3.775661 -1.24713,0 -2.3014,-0.4414 -3.15567,-1.31713 -0.8543,-0.88 -1.28141,-1.8314 -1.28141,-2.855671 0,-2.11426 0.68,-4.25566 2.0314,-6.42134 1.35569,-2.16568 3.33852,-3.961371 5.937061,-5.387061 2.6071,-1.4214102 5.64134,-2.1314002 9.109871,-2.1314002 3.22281,0 6.06848,0.5929 8.53559,1.7871102 2.467111,1.1857 4.375651,2.802821 5.724201,4.851361 1.34284,2.04426 2.01854,4.26709 2.01854,6.66848 -0.0029,1.891401 -0.3871,3.548521 -1.15284,4.969931 z"
     id="path3141"
     inkscape:connector-curvature="0"
     style="fill:#444444;fill-opacity:1" /></svg>