<?xml version="1.0" encoding="UTF-8" standalone="no"?>
<svg
   xmlns:dc="http://purl.org/dc/elements/1.1/"
   xmlns:cc="http://creativecommons.org/ns#"
   xmlns:rdf="http://www.w3.org/1999/02/22-rdf-syntax-ns#"
   xmlns:svg="http://www.w3.org/2000/svg"
   xmlns="http://www.w3.org/2000/svg"
   xmlns:sodipodi="http://sodipodi.sourceforge.net/DTD/sodipodi-0.dtd"
   xmlns:inkscape="http://www.inkscape.org/namespaces/inkscape"
   version="1.1"
   x="0px"
   y="0px"
   viewBox="0 0 99.999995 65.311229"
   enable-background="new 0 0 100 100"
   xml:space="preserve"
   id="svg3063"
   inkscape:version="0.48.4 r9939"
   width="100%"
   height="100%"
   sodipodi:docname="book.svg"><metadata
     id="metadata3077"><rdf:RDF><cc:Work
         rdf:about=""><dc:format>image/svg+xml</dc:format><dc:type
           rdf:resource="http://purl.org/dc/dcmitype/StillImage" /></cc:Work></rdf:RDF></metadata><defs
     id="defs3075" /><sodipodi:namedview
     pagecolor="#ffffff"
     bordercolor="#666666"
     borderopacity="1"
     objecttolerance="10"
     gridtolerance="10"
     guidetolerance="10"
     inkscape:pageopacity="0"
     inkscape:pageshadow="2"
     inkscape:window-width="1627"
     inkscape:window-height="1026"
     id="namedview3073"
     showgrid="false"
     inkscape:showpageshadow="false"
     fit-margin-top="0"
     fit-margin-left="0"
     fit-margin-right="0"
     fit-margin-bottom="0"
     inkscape:zoom="1"
     inkscape:cx="-71.260689"
     inkscape:cy="16.889997"
     inkscape:window-x="53"
     inkscape:window-y="24"
     inkscape:window-maximized="1"
     inkscape:current-layer="svg3063" /><g
     id="g3065"
     transform="matrix(1.1111189,0,0,1.1111189,-5.555701,-22.900501)"
     style="fill:#444444;fill-opacity:1"><path
       d="M 6.469,59.952 43.95,79.27 c 0.153,0.079 0.318,0.12 0.485,0.12 0.182,-0.002 0.363,-0.049 0.526,-0.142 L 94.474,50.659 c 0.35,-0.199 0.555,-0.585 0.522,-0.987 -0.03,-0.4 -0.289,-0.751 -0.664,-0.898 l -3.598,-1.407 c -0.539,-0.213 -1.149,0.054 -1.36,0.594 -0.212,0.541 0.053,1.15 0.594,1.361 L 91.533,49.934 44.411,77.14 7.718,58.235 C 7.179,57.227 6.22,52.739 8.576,48.567 l 34.889,18.247 c 0.154,0.079 0.32,0.12 0.487,0.12 0.181,-0.002 0.361,-0.048 0.525,-0.142 l 49.064,-28.33 c 0.351,-0.2 0.555,-0.583 0.521,-0.987 -0.028,-0.402 -0.287,-0.75 -0.662,-0.898 L 52.798,20.682 c -0.297,-0.116 -0.632,-0.09 -0.906,0.069 L 7.677,46.277 C 7.673,46.282 7.671,46.283 7.668,46.286 7.594,46.327 7.523,46.382 7.463,46.443 7.455,46.451 7.446,46.457 7.439,46.464 7.42,46.489 7.399,46.512 7.378,46.536 7.37,46.55 7.361,46.559 7.355,46.571 7.35,46.578 7.343,46.583 7.34,46.59 3.083,52.736 5.904,59.321 6.064,59.575 c 0.099,0.161 0.239,0.29 0.405,0.377 z"
       id="path3067"
       inkscape:connector-curvature="0"
       style="fill:#444444;fill-opacity:1" /></g></svg>