<?xml version="1.0" encoding="UTF-8" standalone="no"?>
<svg
   xmlns:dc="http://purl.org/dc/elements/1.1/"
   xmlns:cc="http://creativecommons.org/ns#"
   xmlns:rdf="http://www.w3.org/1999/02/22-rdf-syntax-ns#"
   xmlns:svg="http://www.w3.org/2000/svg"
   xmlns="http://www.w3.org/2000/svg"
   xmlns:sodipodi="http://sodipodi.sourceforge.net/DTD/sodipodi-0.dtd"
   xmlns:inkscape="http://www.inkscape.org/namespaces/inkscape"
   version="1.1"
   x="0px"
   y="0px"
   viewBox="0 0 100 81.663824"
   enable-background="new 0 0 100 100"
   xml:space="preserve"
   id="svg3079"
   inkscape:version="0.48.4 r9939"
   width="100%"
   height="100%"
   sodipodi:docname="books.svg"><metadata
     id="metadata3091"><rdf:RDF><cc:Work
         rdf:about=""><dc:format>image/svg+xml</dc:format><dc:type
           rdf:resource="http://purl.org/dc/dcmitype/StillImage" /></cc:Work></rdf:RDF></metadata><defs
     id="defs3089" /><sodipodi:namedview
     pagecolor="#ffffff"
     bordercolor="#666666"
     borderopacity="1"
     objecttolerance="10"
     gridtolerance="10"
     guidetolerance="10"
     inkscape:pageopacity="0"
     inkscape:pageshadow="2"
     inkscape:window-width="1627"
     inkscape:window-height="1026"
     id="namedview3087"
     showgrid="false"
     fit-margin-top="0"
     fit-margin-left="0"
     fit-margin-right="0"
     fit-margin-bottom="0"
     inkscape:showpageshadow="false"
     inkscape:zoom="1.888"
     inkscape:cx="-71.25997"
     inkscape:cy="24.248954"
     inkscape:window-x="53"
     inkscape:window-y="24"
     inkscape:window-maximized="1"
     inkscape:current-layer="svg3079" /><path
     d="M 99.953715,35.870679 C 99.814826,35.326236 99.37705,34.90846 98.828163,34.792905 l -0.672221,-0.14 v -9.401082 l 1.096664,-0.937775 c 0.433332,-0.368887 0.614442,-0.955552 0.465554,-1.504439 -0.148889,-0.548887 -0.601109,-0.963331 -1.161108,-1.064441 l -6.161092,-1.117775 0.0022,-7.91553 -0.0022,-0.163333 1.134441,-0.968886 c 0.432221,-0.369999 0.614443,-0.956664 0.465554,-1.50444 C 93.847067,9.5252059 93.394846,9.1107628 92.834848,9.009652 L 43.038336,0.02412444 c -0.386665,-0.071111 -0.783331,0.016667 -1.104441,0.2411103 L 3.3484596,27.175151 C 2.619573,27.579594 -0.0493077,29.41181 6.9213819e-4,34.504017 0.05735864,40.034 3.3295708,42.545103 3.4695703,42.649547 c 0.018889,0.01444 0.04,0.02333 0.06,0.03667 0.033333,0.02333 0.066667,0.04444 0.1011108,0.06444 0.036667,0.02111 0.074444,0.03889 0.113333,0.05667 0.034444,0.01667 0.068889,0.03111 0.1066663,0.04445 0.042222,0.01555 0.084444,0.02667 0.1277774,0.03778 0.024444,0.0078 0.047778,0.01778 0.072222,0.02333 l 2.2788818,0.477777 c -0.369999,1.005544 -0.6211094,2.26554 -0.6044427,3.848869 0.027778,2.739991 0.8444418,4.737763 1.6788836,6.069981 l -1.76555,1.229996 c -0.7333311,0.408888 -3.3977672,2.244437 -3.3455452,7.328866 0.055555,5.529983 3.3266563,8.046642 3.4699892,8.14553 0.123333,0.08444 0.3699989,0.214444 0.5788871,0.262222 L 58.579399,81.237205 c 0.0056,0.0011 0.01111,0.0033 0.01667,0.0044 l 1.865549,0.39111 c 0.1,0.02111 0.202222,0.03111 0.302222,0.03111 0.346665,0 0.686664,-0.123333 0.955552,-0.352221 L 96.051505,51.985073 c 0.427776,-0.365554 0.609998,-0.942219 0.471109,-1.48555 -0.139999,-0.544443 -0.576665,-0.96222 -1.126663,-1.077775 L 94.78262,49.293971 v -7.923309 l 4.698874,-4.013321 c 0.428887,-0.366665 0.612226,-0.94333 0.472221,-1.486662 z m -41.713204,5.389983 c 0.347777,0 0.687776,-0.123333 0.956664,-0.353332 L 89.468192,15.050744 v 9.362193 L 57.96829,51.203965 v -9.972191 c 0.09222,0.01667 0.182221,0.02889 0.272221,0.02889 z M 5.6284525,30.252919 55.017188,40.61622 v 9.966636 L 5.6284525,40.240666 V 30.252919 z M 7.9206676,67.593914 V 57.613945 L 57.308292,67.979468 v 9.979969 L 7.9206676,67.593914 z M 11.376212,52.977293 v -8.527752 l 44.912083,9.423304 c 0.0056,0.0011 0.01,0.0033 0.01555,0.0044 l 1.86555,0.39111 c 0.101111,0.02111 0.202222,0.03111 0.302221,0.03111 0.346666,0 0.687776,-0.123333 0.956664,-0.352221 l 0.816664,-0.698887 0.493332,0.103333 v 9.976636 L 11.376212,52.977293 z m 80.45975,-1.267774 -31.565457,26.872138 -0.01,-9.985524 c 0.09,0.01778 0.18111,0.02778 0.272221,0.02778 0.346666,0 0.686665,-0.122222 0.955553,-0.352222 l 1.66555,-1.422217 0.736664,0.154444 c 0.1,0.02111 0.202222,0.03111 0.301111,0.03111 0.347776,0 0.687775,-0.123333 0.956663,-0.352221 L 91.835962,43.87621 v 7.833309 z m 3.426656,-14.623288 -31.561013,26.86325 -0.01111,-9.98108 c 0.09111,0.01667 0.181111,0.02778 0.27111,0.02778 0.347777,0 0.687776,-0.123333 0.956664,-0.352221 l 30.348795,-25.924364 -0.0044,9.366638 z"
     id="path3081"
     inkscape:connector-curvature="0"
     style="fill:#444444;fill-opacity:1" /></svg>