<?xml version="1.0" encoding="UTF-8" standalone="no"?>
<svg
   xmlns:dc="http://purl.org/dc/elements/1.1/"
   xmlns:cc="http://creativecommons.org/ns#"
   xmlns:rdf="http://www.w3.org/1999/02/22-rdf-syntax-ns#"
   xmlns:svg="http://www.w3.org/2000/svg"
   xmlns="http://www.w3.org/2000/svg"
   xmlns:sodipodi="http://sodipodi.sourceforge.net/DTD/sodipodi-0.dtd"
   xmlns:inkscape="http://www.inkscape.org/namespaces/inkscape"
   version="1.1"
   x="0px"
   y="0px"
   viewBox="0 0 99.999997 100.12439"
   enable-background="new 0 0 99.877 100"
   xml:space="preserve"
   id="svg2999"
   inkscape:version="0.48.4 r9939"
   width="100%"
   height="100%"
   sodipodi:docname="Braille noun_2301_cc.svg"><metadata
     id="metadata3045"><rdf:RDF><cc:Work
         rdf:about=""><dc:format>image/svg+xml</dc:format><dc:type
           rdf:resource="http://purl.org/dc/dcmitype/StillImage" /></cc:Work></rdf:RDF></metadata><defs
     id="defs3043" /><sodipodi:namedview
     pagecolor="#ffffff"
     bordercolor="#666666"
     borderopacity="1"
     objecttolerance="10"
     gridtolerance="10"
     guidetolerance="10"
     inkscape:pageopacity="0"
     inkscape:pageshadow="2"
     inkscape:window-width="1627"
     inkscape:window-height="1026"
     id="namedview3041"
     showgrid="false"
     inkscape:zoom="1.888"
     inkscape:cx="-66.322095"
     inkscape:cy="37.501235"
     inkscape:window-x="53"
     inkscape:window-y="24"
     inkscape:window-maximized="1"
     inkscape:current-layer="svg2999"
     fit-margin-top="0"
     fit-margin-left="0"
     fit-margin-right="0"
     fit-margin-bottom="0"
     inkscape:showpageshadow="false" /><g
     id="g6478"
     style="fill:#444444;fill-opacity:1"
     transform="translate(-1.8593929e-6,0.12315411)"><path
       inkscape:connector-curvature="0"
       id="path3001"
       d="m 35.535709,5.0762412 c -1.090341,0.064079 -1.698088,0.4976121 -2.189693,1.2114902 -0.490603,0.7148793 -0.809996,1.7922044 -0.938154,3.0497512 -0.256315,2.5150934 0.191235,5.6629654 0.507624,7.8576654 1.449784,10.032339 5.015169,19.597104 6.95856,29.710544 1.157423,6.018403 1.634009,12.157954 2.736365,18.022167 l 0.312385,1.759164 -1.563924,-0.82101 c -0.743915,-0.388478 -1.264556,-1.064309 -1.798212,-1.876308 -0.533656,-0.813 -1.035273,-1.803218 -1.563924,-2.815463 -1.056299,-2.023489 -2.179681,-4.218188 -3.205943,-5.433683 -1.588954,-1.884318 -3.553371,-3.981898 -5.629925,-5.238443 -2.051523,-1.242529 -4.068004,-1.647026 -6.254693,-0.546673 -0.966189,0.879081 -1.319623,1.673058 -1.329636,2.580174 -0.01001,0.945162 0.37346,2.042512 0.977202,3.205943 1.207486,2.325861 3.259009,4.790893 3.86976,7.34904 1.51987,6.364828 5.374611,11.339948 8.795819,16.771629 2.67429,4.243219 4.663737,8.922975 8.795819,11.02456 5.450705,2.771409 10.192537,7.147792 15.599187,8.052905 6.566077,1.100356 13.906105,1.428756 20.21086,0.586722 C 86.075874,98.690388 91.218199,96.650879 93.62516,93.388867 98.790513,72.427083 95.5275,58.785304 87.175226,47.375269 81.577341,45.467923 73.17801,44.340537 66.143357,43.778846 c -7.117755,-0.5687 -12.784725,-0.62577 -12.784725,-0.62577 h -0.585721 l -0.19524,-0.507624 c 0,0 -2.376924,-5.661965 -4.887011,-12.040811 C 45.180573,24.224794 42.533316,17.21317 41.943591,13.990205 41.401925,11.023556 40.856254,8.6356193 39.950139,7.1487905 39.047028,5.6609604 37.955686,4.9330651 35.535709,5.0762412 z"
       style="fill:#444444;fill-opacity:1" /><circle
       transform="matrix(1.0012315,0,0,1.0012315,0,-0.12315411)"
       sodipodi:ry="1.716"
       sodipodi:rx="1.716"
       sodipodi:cy="7.039"
       sodipodi:cx="87.797997"
       id="circle3003"
       r="1.716"
       cy="7.039"
       cx="87.797997"
       style="fill:#444444;fill-opacity:1"
       d="m 89.513996,7.039 c 0,0.9477206 -0.768279,1.716 -1.715999,1.716 -0.947721,0 -1.716,-0.7682794 -1.716,-1.716 0,-0.9477206 0.768279,-1.7159999 1.716,-1.7159999 0.94772,0 1.715999,0.7682793 1.715999,1.7159999 z" /><circle
       transform="matrix(1.0012315,0,0,1.0012315,0,-0.12315411)"
       sodipodi:ry="1.715"
       sodipodi:rx="1.715"
       sodipodi:cy="12.037"
       sodipodi:cx="92.795998"
       id="circle3005"
       r="1.715"
       cy="12.037"
       cx="92.795998"
       style="fill:#444444;fill-opacity:1"
       d="m 94.510998,12.037 c 0,0.947168 -0.767832,1.715 -1.715,1.715 -0.947169,0 -1.715,-0.767832 -1.715,-1.715 0,-0.947169 0.767831,-1.715 1.715,-1.715 0.947168,0 1.715,0.767831 1.715,1.715 z" /><circle
       transform="matrix(1.0012315,0,0,1.0012315,0,-0.12315411)"
       sodipodi:ry="1.715"
       sodipodi:rx="1.715"
       sodipodi:cy="17.035999"
       sodipodi:cx="74.345001"
       id="circle3007"
       r="1.715"
       cy="17.035999"
       cx="74.345001"
       style="fill:#444444;fill-opacity:1"
       d="m 76.060001,17.035999 c 0,0.947169 -0.767831,1.715 -1.715,1.715 -0.947168,0 -1.715,-0.767831 -1.715,-1.715 0,-0.947168 0.767832,-1.715 1.715,-1.715 0.947169,0 1.715,0.767832 1.715,1.715 z" /><circle
       transform="matrix(1.0012315,0,0,1.0012315,0,-0.12315411)"
       sodipodi:ry="1.715"
       sodipodi:rx="1.715"
       sodipodi:cy="12.037"
       sodipodi:cx="74.345001"
       id="circle3009"
       r="1.715"
       cy="12.037"
       cx="74.345001"
       style="fill:#444444;fill-opacity:1"
       d="m 76.060001,12.037 c 0,0.947168 -0.767831,1.715 -1.715,1.715 -0.947168,0 -1.715,-0.767832 -1.715,-1.715 0,-0.947169 0.767832,-1.715 1.715,-1.715 0.947169,0 1.715,0.767831 1.715,1.715 z" /><circle
       transform="matrix(1.0012315,0,0,1.0012315,0,-0.12315411)"
       sodipodi:ry="1.715"
       sodipodi:rx="1.715"
       sodipodi:cy="7.039"
       sodipodi:cx="74.345001"
       id="circle3011"
       r="1.715"
       cy="7.039"
       cx="74.345001"
       style="fill:#444444;fill-opacity:1"
       d="m 76.060001,7.039 c 0,0.9471684 -0.767831,1.7150001 -1.715,1.7150001 -0.947168,0 -1.715,-0.7678317 -1.715,-1.7150001 0,-0.9471683 0.767832,-1.715 1.715,-1.715 0.947169,0 1.715,0.7678317 1.715,1.715 z" /><circle
       transform="matrix(1.0012315,0,0,1.0012315,0,-0.12315411)"
       sodipodi:ry="1.715"
       sodipodi:rx="1.715"
       sodipodi:cy="17.035999"
       sodipodi:cx="60.893002"
       id="circle3013"
       r="1.715"
       cy="17.035999"
       cx="60.893002"
       style="fill:#444444;fill-opacity:1"
       d="m 62.608002,17.035999 c 0,0.947169 -0.767832,1.715 -1.715,1.715 -0.947169,0 -1.715,-0.767831 -1.715,-1.715 0,-0.947168 0.767831,-1.715 1.715,-1.715 0.947168,0 1.715,0.767832 1.715,1.715 z" /><circle
       transform="matrix(1.0012315,0,0,1.0012315,0,-0.12315411)"
       sodipodi:ry="1.715"
       sodipodi:rx="1.715"
       sodipodi:cy="12.037"
       sodipodi:cx="60.893002"
       id="circle3015"
       r="1.715"
       cy="12.037"
       cx="60.893002"
       style="fill:#444444;fill-opacity:1"
       d="m 62.608002,12.037 c 0,0.947168 -0.767832,1.715 -1.715,1.715 -0.947169,0 -1.715,-0.767832 -1.715,-1.715 0,-0.947169 0.767831,-1.715 1.715,-1.715 0.947168,0 1.715,0.767831 1.715,1.715 z" /><circle
       transform="matrix(1.0012315,0,0,1.0012315,0,-0.12315411)"
       sodipodi:ry="1.715"
       sodipodi:rx="1.715"
       sodipodi:cy="7.039"
       sodipodi:cx="60.893002"
       id="circle3017"
       r="1.715"
       cy="7.039"
       cx="60.893002"
       style="fill:#444444;fill-opacity:1"
       d="m 62.608002,7.039 c 0,0.9471684 -0.767832,1.7150001 -1.715,1.7150001 -0.947169,0 -1.715,-0.7678317 -1.715,-1.7150001 0,-0.9471683 0.767831,-1.715 1.715,-1.715 0.947168,0 1.715,0.7678317 1.715,1.715 z" /><circle
       transform="matrix(1.0012315,0,0,1.0012315,0,-0.12315411)"
       sodipodi:ry="1.716"
       sodipodi:rx="1.716"
       sodipodi:cy="12.037"
       sodipodi:cx="47.439999"
       id="circle3019"
       r="1.716"
       cy="12.037"
       cx="47.439999"
       style="fill:#444444;fill-opacity:1"
       d="m 49.155999,12.037 c 0,0.94772 -0.76828,1.716 -1.716,1.716 -0.947721,0 -1.716,-0.76828 -1.716,-1.716 0,-0.947721 0.768279,-1.716 1.716,-1.716 0.94772,0 1.716,0.768279 1.716,1.716 z" /><circle
       transform="matrix(1.0012315,0,0,1.0012315,0,-0.12315411)"
       sodipodi:ry="1.716"
       sodipodi:rx="1.716"
       sodipodi:cy="7.039"
       sodipodi:cx="52.438"
       id="circle3021"
       r="1.716"
       cy="7.039"
       cx="52.438"
       style="fill:#444444;fill-opacity:1"
       d="m 54.154,7.039 c 0,0.9477206 -0.76828,1.716 -1.716,1.716 -0.947721,0 -1.716,-0.7682794 -1.716,-1.716 0,-0.9477206 0.768279,-1.7159999 1.716,-1.7159999 0.94772,0 1.716,0.7682793 1.716,1.7159999 z" /><circle
       transform="matrix(1.0012315,0,0,1.0012315,0,-0.12315411)"
       sodipodi:ry="1.716"
       sodipodi:rx="1.716"
       sodipodi:cy="17.035999"
       sodipodi:cx="20.535"
       id="circle3023"
       r="1.716"
       cy="17.035999"
       cx="20.535"
       style="fill:#444444;fill-opacity:1"
       d="m 22.251,17.035999 c 0,0.947721 -0.76828,1.716 -1.716,1.716 -0.947721,0 -1.716,-0.768279 -1.716,-1.716 0,-0.94772 0.768279,-1.716 1.716,-1.716 0.94772,0 1.716,0.76828 1.716,1.716 z" /><circle
       transform="matrix(1.0012315,0,0,1.0012315,0,-0.12315411)"
       sodipodi:ry="1.716"
       sodipodi:rx="1.716"
       sodipodi:cy="12.037"
       sodipodi:cx="20.535"
       id="circle3025"
       r="1.716"
       cy="12.037"
       cx="20.535"
       style="fill:#444444;fill-opacity:1"
       d="m 22.251,12.037 c 0,0.94772 -0.76828,1.716 -1.716,1.716 -0.947721,0 -1.716,-0.76828 -1.716,-1.716 0,-0.947721 0.768279,-1.716 1.716,-1.716 0.94772,0 1.716,0.768279 1.716,1.716 z" /><circle
       transform="matrix(1.0012315,0,0,1.0012315,0,-0.12315411)"
       sodipodi:ry="1.716"
       sodipodi:rx="1.716"
       sodipodi:cy="7.039"
       sodipodi:cx="20.535"
       id="circle3027"
       r="1.716"
       cy="7.039"
       cx="20.535"
       style="fill:#444444;fill-opacity:1"
       d="m 22.251,7.039 c 0,0.9477206 -0.76828,1.716 -1.716,1.716 -0.947721,0 -1.716,-0.7682794 -1.716,-1.716 0,-0.9477206 0.768279,-1.7159999 1.716,-1.7159999 0.94772,0 1.716,0.7682793 1.716,1.7159999 z" /><circle
       transform="matrix(1.0012315,0,0,1.0012315,0,-0.12315411)"
       sodipodi:ry="1.716"
       sodipodi:rx="1.716"
       sodipodi:cy="12.037"
       sodipodi:cx="25.532"
       id="circle3029"
       r="1.716"
       cy="12.037"
       cx="25.532"
       style="fill:#444444;fill-opacity:1"
       d="m 27.248,12.037 c 0,0.94772 -0.76828,1.716 -1.716,1.716 -0.947721,0 -1.716,-0.76828 -1.716,-1.716 0,-0.947721 0.768279,-1.716 1.716,-1.716 0.94772,0 1.716,0.768279 1.716,1.716 z" /><circle
       transform="matrix(1.0012315,0,0,1.0012315,0,-0.12315411)"
       sodipodi:ry="1.715"
       sodipodi:rx="1.715"
       sodipodi:cy="12.037"
       sodipodi:cx="7.0819998"
       id="circle3031"
       r="1.715"
       cy="12.037"
       cx="7.0819998"
       style="fill:#444444;fill-opacity:1"
       d="m 8.7969998,12.037 c 0,0.947168 -0.7678317,1.715 -1.715,1.715 -0.9471684,0 -1.7150001,-0.767832 -1.7150001,-1.715 0,-0.947169 0.7678317,-1.715 1.7150001,-1.715 0.9471683,0 1.715,0.767831 1.715,1.715 z" /><circle
       transform="matrix(1.0012315,0,0,1.0012315,0,-0.12315411)"
       sodipodi:ry="1.715"
       sodipodi:rx="1.715"
       sodipodi:cy="7.039"
       sodipodi:cx="7.0819998"
       id="circle3033"
       r="1.715"
       cy="7.039"
       cx="7.0819998"
       style="fill:#444444;fill-opacity:1"
       d="m 8.7969998,7.039 c 0,0.9471684 -0.7678317,1.7150001 -1.715,1.7150001 -0.9471684,0 -1.7150001,-0.7678317 -1.7150001,-1.7150001 0,-0.9471683 0.7678317,-1.715 1.7150001,-1.715 0.9471683,0 1.715,0.7678317 1.715,1.715 z" /><path
       inkscape:connector-curvature="0"
       id="path3035"
       d="M 7.1147512,-0.12315411 C 3.1889224,-0.12315411 0,3.0657683 0,6.9915971 v 9.8901649 c 0,3.925829 3.1889224,7.114751 7.1147512,7.114751 H 31.586852 c -0.125154,-0.573705 -0.23629,-1.143406 -0.352433,-1.720115 H 7.1147512 c -3.0036946,0 -5.3946354,-2.390941 -5.3946354,-5.394636 V 6.9915971 c 0,-3.0046958 2.3909408,-5.3946354 5.3946354,-5.3946354 H 92.886251 c 3.003695,0 5.394636,2.3899396 5.394636,5.3946354 v 9.8901649 c 0,3.003695 -2.390941,5.394636 -5.394636,5.394636 H 47.303183 c 0.206254,0.567698 0.369455,1.134395 0.586722,1.720115 H 92.886251 C 96.81208,23.996513 100,20.807591 100,16.881762 V 6.9915971 c 0,-3.9258288 -3.18792,-7.11475121 -7.113749,-7.11475121 H 7.1147512 z"
       style="fill:#444444;fill-opacity:1" /></g></svg>