<?xml version="1.0" encoding="UTF-8" standalone="no"?>
<svg
   xmlns:dc="http://purl.org/dc/elements/1.1/"
   xmlns:cc="http://creativecommons.org/ns#"
   xmlns:rdf="http://www.w3.org/1999/02/22-rdf-syntax-ns#"
   xmlns:svg="http://www.w3.org/2000/svg"
   xmlns="http://www.w3.org/2000/svg"
   xmlns:sodipodi="http://sodipodi.sourceforge.net/DTD/sodipodi-0.dtd"
   xmlns:inkscape="http://www.inkscape.org/namespaces/inkscape"
   version="1.1"
   x="0px"
   y="0px"
   viewBox="0 0 100 97.727689"
   enable-background="new 0 0 100 100"
   xml:space="preserve"
   id="svg2"
   inkscape:version="0.48.4 r9939"
   width="100%"
   height="100%"
   sodipodi:docname="Compact Disc noun_166097_cc.svg"><metadata
     id="metadata30"><rdf:RDF><cc:Work
         rdf:about=""><dc:format>image/svg+xml</dc:format><dc:type
           rdf:resource="http://purl.org/dc/dcmitype/StillImage" /></cc:Work></rdf:RDF></metadata><defs
     id="defs28" /><sodipodi:namedview
     pagecolor="#ffffff"
     bordercolor="#666666"
     borderopacity="1"
     objecttolerance="10"
     gridtolerance="10"
     guidetolerance="10"
     inkscape:pageopacity="0"
     inkscape:pageshadow="2"
     inkscape:window-width="1627"
     inkscape:window-height="1026"
     id="namedview26"
     showgrid="false"
     fit-margin-top="0"
     fit-margin-left="0"
     fit-margin-right="0"
     fit-margin-bottom="0"
     inkscape:showpageshadow="false"
     inkscape:zoom="1.888"
     inkscape:cx="-73.260235"
     inkscape:cy="30.50036"
     inkscape:window-x="53"
     inkscape:window-y="24"
     inkscape:window-maximized="1"
     inkscape:current-layer="svg2" /><g
     id="g3007"
     transform="matrix(1.136359,0,0,1.136359,-7.9541059,-7.9541073)"
     style="fill:#444444;fill-opacity:1"><path
       id="path4"
       d="M 62.307,87 C 58.484,88.275 54.403,88.982 50.158,89 28.654,89.087 11.088,71.663 11,50.158 10.913,28.654 28.337,11.088 49.842,11 71.347,10.912 88.912,28.337 89,49.842 c 0.022,5.379 -1.052,10.512 -3.012,15.186 l 4.292,0.004 C 92.053,60.297 93.022,55.174 93,49.826 92.903,26.115 73.535,6.904 49.825,7 26.115,7.097 6.904,26.464 7,50.174 7.097,73.884 26.464,93.096 50.174,93 c 7.92,-0.032 15.332,-2.224 21.695,-6 h -9.562 z"
       inkscape:connector-curvature="0"
       style="fill:#444444;fill-opacity:1" /><path
       id="path6"
       d="m 50,37 c -7.18,0 -13,5.82 -13,13 0,7.18 5.82,13 13,13 7.18,0 13,-5.82 13,-13 0,-7.18 -5.82,-13 -13,-13 z m 0,23 c -5.523,0 -10,-4.477 -10,-10 0,-5.523 4.477,-10 10,-10 5.523,0 10,4.477 10,10 0,5.523 -4.477,10 -10,10 z"
       inkscape:connector-curvature="0"
       style="fill:#444444;fill-opacity:1" /><path
       id="path8"
       d="m 50,44 c -3.314,0 -6,2.686 -6,6 0,3.314 2.686,6 6,6 3.314,0 6,-2.686 6,-6 0,-3.314 -2.686,-6 -6,-6 z m 0,9 c -1.657,0 -3,-1.343 -3,-3 0,-1.657 1.343,-3 3,-3 1.657,0 3,1.343 3,3 0,1.657 -1.343,3 -3,3 z"
       inkscape:connector-curvature="0"
       style="fill:#444444;fill-opacity:1" /><path
       id="path10"
       d="m 30.255,58.491 -2.775,1.15 c 2.522,5.869 7.273,10.56 13.182,13.006 l 1.15,-2.775 C 36.635,67.729 32.472,63.627 30.255,58.491 z"
       inkscape:connector-curvature="0"
       style="fill:#444444;fill-opacity:1" /><path
       id="path12"
       d="m 69.871,41.811 2.776,-1.15 C 70.201,34.752 65.51,30.001 59.641,27.479 l -1.15,2.775 c 5.136,2.218 9.238,6.381 11.38,11.557 z"
       inkscape:connector-curvature="0"
       style="fill:#444444;fill-opacity:1" /><path
       id="path14"
       d="m 22.397,61.746 -2.772,1.148 c 3.385,7.944 9.8,14.296 17.784,17.604 l 1.148,-2.771 C 31.305,74.723 25.478,68.957 22.397,61.746 z"
       inkscape:connector-curvature="0"
       style="fill:#444444;fill-opacity:1" /><path
       id="path16"
       d="m 77.727,38.557 2.771,-1.148 C 77.19,29.425 70.838,23.01 62.894,19.625 l -1.148,2.772 c 7.211,3.081 12.977,8.908 15.981,16.16 z"
       inkscape:connector-curvature="0"
       style="fill:#444444;fill-opacity:1" /><path
       id="path18"
       d="M 85.38,73.298 C 85.111,72.951 84.756,72.685 84.314,72.5 83.872,72.315 83.326,72.223 82.676,72.223 h -1.882 v 7.56 h 2.352 c 0.381,0 0.751,-0.061 1.109,-0.185 0.358,-0.123 0.678,-0.327 0.957,-0.613 0.28,-0.285 0.504,-0.657 0.672,-1.117 0.169,-0.459 0.253,-1.019 0.253,-1.68 0,-0.604 -0.06,-1.15 -0.177,-1.638 -0.119,-0.488 -0.311,-0.904 -0.58,-1.252 z"
       inkscape:connector-curvature="0"
       style="fill:#444444;fill-opacity:1" /><path
       id="path20"
       d="M 93,67 H 61 c -1.1,0 -2,0.9 -2,2 v 14 c 0,1.1 0.9,2 2,2 h 32 c 1.1,0 2,-0.9 2,-2 V 69 c 0,-1.1 -0.9,-2 -2,-2 z M 75.826,79.413 c -0.28,0.604 -0.65,1.12 -1.109,1.546 -0.459,0.426 -0.997,0.75 -1.612,0.974 -0.616,0.225 -1.294,0.337 -2.033,0.337 -0.918,0 -1.744,-0.16 -2.478,-0.479 -0.734,-0.319 -1.353,-0.759 -1.856,-1.318 -0.504,-0.561 -0.891,-1.218 -1.159,-1.975 -0.27,-0.756 -0.403,-1.57 -0.403,-2.444 0,-0.896 0.134,-1.728 0.403,-2.494 0.269,-0.768 0.655,-1.437 1.159,-2.008 0.504,-0.571 1.122,-1.02 1.856,-1.344 0.733,-0.325 1.56,-0.487 2.478,-0.487 0.661,0 1.285,0.095 1.873,0.285 0.588,0.19 1.114,0.468 1.579,0.832 0.465,0.364 0.849,0.814 1.151,1.353 0.302,0.537 0.492,1.153 0.571,1.848 H 73.692 C 73.647,73.736 73.546,73.459 73.389,73.207 73.232,72.955 73.036,72.734 72.801,72.544 72.566,72.354 72.3,72.205 72.003,72.099 71.706,71.993 71.396,71.94 71.07,71.94 c -0.594,0 -1.098,0.114 -1.512,0.344 -0.415,0.229 -0.751,0.538 -1.008,0.924 -0.258,0.387 -0.445,0.826 -0.563,1.319 -0.117,0.493 -0.176,1.002 -0.176,1.528 0,0.504 0.059,0.994 0.176,1.471 0.118,0.476 0.306,0.904 0.563,1.285 0.257,0.381 0.593,0.686 1.008,0.915 0.414,0.229 0.918,0.345 1.512,0.345 0.807,0 1.437,-0.246 1.89,-0.739 0.454,-0.493 0.731,-1.143 0.832,-1.949 h 2.554 c -0.067,0.748 -0.241,1.426 -0.52,2.03 z m 12.611,-1.059 c -0.224,0.739 -0.562,1.378 -1.016,1.915 -0.454,0.538 -1.02,0.961 -1.697,1.269 C 85.047,81.847 84.249,82 83.331,82 H 78.156 V 70.005 h 5.175 c 0.772,0 1.492,0.124 2.158,0.37 0.666,0.246 1.243,0.616 1.73,1.108 0.487,0.493 0.868,1.108 1.143,1.848 0.275,0.74 0.411,1.607 0.411,2.604 0,0.874 -0.111,1.68 -0.336,2.419 z"
       inkscape:connector-curvature="0"
       style="fill:#444444;fill-opacity:1" /></g></svg>