<?xml version="1.0" encoding="UTF-8" standalone="no"?>
<svg
   xmlns:dc="http://purl.org/dc/elements/1.1/"
   xmlns:cc="http://creativecommons.org/ns#"
   xmlns:rdf="http://www.w3.org/1999/02/22-rdf-syntax-ns#"
   xmlns:svg="http://www.w3.org/2000/svg"
   xmlns="http://www.w3.org/2000/svg"
   xmlns:sodipodi="http://sodipodi.sourceforge.net/DTD/sodipodi-0.dtd"
   xmlns:inkscape="http://www.inkscape.org/namespaces/inkscape"
   version="1.1"
   x="0px"
   y="0px"
   viewBox="0 0 86.000717 96.300789"
   enable-background="new 0 0 100 100"
   xml:space="preserve"
   id="svg20"
   sodipodi:docname="disc.svg"
   width="86.000717"
   height="96.300789"
   inkscape:version="0.92.4 (f8dce91, 2019-08-02)"
   inkscape:export-filename="/home/mbirkner/dev/aksearch/themes/AkSearch/images/medium/sounddisc.png"
   inkscape:export-xdpi="331.5321"
   inkscape:export-ydpi="331.5321"><metadata
     id="metadata26"><rdf:RDF><cc:Work
         rdf:about=""><dc:format>image/svg+xml</dc:format><dc:type
           rdf:resource="http://purl.org/dc/dcmitype/StillImage" /></cc:Work></rdf:RDF></metadata><defs
     id="defs24" /><sodipodi:namedview
     pagecolor="#ffffff"
     bordercolor="#666666"
     borderopacity="1"
     objecttolerance="10"
     gridtolerance="10"
     guidetolerance="10"
     inkscape:pageopacity="0"
     inkscape:pageshadow="2"
     inkscape:window-width="1920"
     inkscape:window-height="1025"
     id="namedview22"
     showgrid="false"
     inkscape:zoom="1.888"
     inkscape:cx="-109.01235"
     inkscape:cy="40.800432"
     inkscape:window-x="0"
     inkscape:window-y="397"
     inkscape:window-maximized="1"
     inkscape:current-layer="svg20" /><path
     d="m 43.000358,30.000358 c -7.18,0 -13,5.82 -13,13 0,7.18 5.82,13 13,13 7.18,0 13,-5.82 13,-13 0,-7.18 -5.82,-13 -13,-13 z m 0,23 c -5.523,0 -10,-4.477 -10,-10 0,-5.523 4.477,-10 10,-10 5.523,0 10,4.477 10,10 0,5.523 -4.477,10 -10,10 z"
     id="path2"
     style="fill:#444444;fill-opacity:1"
     inkscape:connector-curvature="0" /><path
     d="m 43.000358,37.000358 c -3.314,0 -6,2.686 -6,6 0,3.314 2.686,6 6,6 3.314,0 6,-2.686 6,-6 0,-3.314 -2.686,-6 -6,-6 z m 0,9 c -1.657,0 -3,-1.343 -3,-3 0,-1.657 1.343,-3 3,-3 1.657,0 3,1.343 3,3 0,1.657 -1.343,3 -3,3 z"
     id="path4"
     style="fill:#444444;fill-opacity:1"
     inkscape:connector-curvature="0" /><path
     d="m 23.255358,51.491358 -2.775,1.15 c 2.522,5.869 7.273,10.56 13.182,13.006 l 1.15,-2.775 c -5.177,-2.143 -9.34,-6.245 -11.557,-11.381 z"
     id="path6"
     style="fill:#444444;fill-opacity:1"
     inkscape:connector-curvature="0" /><path
     d="m 62.871358,34.811358 2.776,-1.15 c -2.446,-5.909 -7.137,-10.66 -13.006,-13.182 l -1.15,2.775 c 5.136,2.218 9.238,6.381 11.38,11.557 z"
     id="path8"
     style="fill:#444444;fill-opacity:1"
     inkscape:connector-curvature="0" /><path
     d="m 15.397358,54.746358 -2.772,1.148 c 3.385,7.944 9.8,14.296 17.784,17.604 l 1.148,-2.771 c -7.252,-3.004 -13.079,-8.77 -16.16,-15.981 z"
     id="path10"
     style="fill:#444444;fill-opacity:1"
     inkscape:connector-curvature="0" /><path
     d="m 70.727358,31.557358 2.771,-1.148 c -3.308,-7.984 -9.66,-14.399 -17.604,-17.784 l -1.148,2.772 c 7.211,3.081 12.977,8.908 15.981,16.16 z"
     id="path12"
     style="fill:#444444;fill-opacity:1"
     inkscape:connector-curvature="0" /><path
     d="m 43.175358,86.000358 c -23.711,0.096 -43.07799977,-19.116 -43.17499976726,-42.825 C -0.09564177,19.464358 19.115358,0.09735823 42.825358,3.5823274e-4 66.535358,-0.09564177 85.903358,19.115358 86.000358,42.825358 c 0.096,23.71 -19.116,43.078 -42.825,43.175 z m -0.333,-81.9999998 c -21.505,0.088 -38.9289998,17.6539998 -38.8419998,39.1579998 0.088,21.505 17.6539998,38.929 39.1579998,38.842 21.505,-0.088 38.929,-17.654 38.842,-39.158 -0.088,-21.505 -17.654,-38.9289998 -39.158,-38.8419998 z"
     id="path14"
     style="fill:#444444;fill-opacity:1"
     inkscape:connector-curvature="0" /><path
     d="m 56.439596,61.623971 c -0.172354,0 -0.344706,0.172354 -0.344706,0.430884 v 7.152663 16.02886 c 0,0.25853 -0.172354,0.430884 -0.430883,0.430884 -1.465004,0 -3.274714,0.517059 -4.912071,1.465003 -3.533244,2.06824 -5.342953,5.42913 -4.050304,7.497373 1.206475,2.15441 5.084424,2.24059 8.531491,0.17235 2.757655,-1.55118 4.481189,-3.964126 4.481189,-6.032366 v 0 -20.079164 c 0,-0.172354 0.08618,-0.344707 0.344706,-0.430884 l 18.872689,-4.222656 c 0.258533,-0.08618 0.517058,0.172353 0.517058,0.430883 v 14.736211 c 0,0.25853 -0.172347,0.430883 -0.43088,0.430883 -1.465006,0 -3.274715,0.51706 -4.912067,1.465004 -3.533248,2.068239 -5.342957,5.429129 -4.050306,7.49737 1.206472,2.154416 5.084422,2.240593 8.531483,0.172353 2.757665,-1.551181 4.481196,-3.964127 4.481196,-6.032367 v 0 -19.648281 -6.894134 c 0,-0.258531 -0.258534,-0.430882 -0.517068,-0.430882 z"
     id="path3257"
     inkscape:connector-curvature="0"
     style="fill:#444444;fill-opacity:1;stroke-width:0.36783931" /></svg>