<?xml version="1.0" encoding="UTF-8" standalone="no"?>
<svg
   xmlns:dc="http://purl.org/dc/elements/1.1/"
   xmlns:cc="http://creativecommons.org/ns#"
   xmlns:rdf="http://www.w3.org/1999/02/22-rdf-syntax-ns#"
   xmlns:svg="http://www.w3.org/2000/svg"
   xmlns="http://www.w3.org/2000/svg"
   xmlns:sodipodi="http://sodipodi.sourceforge.net/DTD/sodipodi-0.dtd"
   xmlns:inkscape="http://www.inkscape.org/namespaces/inkscape"
   version="1.1"
   x="0px"
   y="0px"
   viewBox="0 0 99.999999 97.727689"
   enable-background="new 0 0 100 100"
   xml:space="preserve"
   id="svg3093"
   inkscape:version="0.48.4 r9939"
   width="100%"
   height="100%"
   sodipodi:docname="dvd.svg"><metadata
     id="metadata3123"><rdf:RDF><cc:Work
         rdf:about=""><dc:format>image/svg+xml</dc:format><dc:type
           rdf:resource="http://purl.org/dc/dcmitype/StillImage" /></cc:Work></rdf:RDF></metadata><defs
     id="defs3121" /><sodipodi:namedview
     pagecolor="#ffffff"
     bordercolor="#666666"
     borderopacity="1"
     objecttolerance="10"
     gridtolerance="10"
     guidetolerance="10"
     inkscape:pageopacity="0"
     inkscape:pageshadow="2"
     inkscape:window-width="1627"
     inkscape:window-height="1026"
     id="namedview3119"
     showgrid="false"
     fit-margin-top="0"
     fit-margin-left="0"
     fit-margin-right="0"
     fit-margin-bottom="0"
     inkscape:showpageshadow="false"
     inkscape:zoom="1.888"
     inkscape:cx="-73.260235"
     inkscape:cy="30.500359"
     inkscape:window-x="53"
     inkscape:window-y="24"
     inkscape:window-maximized="1"
     inkscape:current-layer="svg3093" /><g
     id="g7981"
     style="fill:#444444;fill-opacity:1"
     transform="scale(1.136359,1.136359)"><path
       inkscape:connector-curvature="0"
       id="path3095"
       d="m 55.307358,80.000358 c -3.823,1.275 -7.904,1.982 -12.149,2 -21.504,0.087 -39.0699998,-17.337 -39.1579998,-38.842 -0.087,-21.504 17.3369998,-39.0699998 38.8419998,-39.1579998 21.505,-0.088 39.07,17.3369998 39.158,38.8419998 0.022,5.379 -1.052,10.512 -3.012,15.186 l 4.292,0.004 c 1.773,-4.735 2.742,-9.858 2.72,-15.206 -0.097,-23.711 -19.465,-42.92199977 -43.175,-42.82599976727 C 19.115358,0.09735823 -0.09564177,19.464358 3.5823274e-4,43.174358 0.09735823,66.884358 19.464358,86.096358 43.174358,86.000358 c 7.92,-0.032 15.332,-2.224 21.695,-6 h -9.562 z"
       style="fill:#444444;fill-opacity:1" /><path
       inkscape:connector-curvature="0"
       id="path3097"
       d="m 43.000358,30.000358 c -7.18,0 -13,5.82 -13,13 0,7.18 5.82,13 13,13 7.18,0 13,-5.82 13,-13 0,-7.18 -5.82,-13 -13,-13 z m 0,23 c -5.523,0 -10,-4.477 -10,-10 0,-5.523 4.477,-10 10,-10 5.523,0 10,4.477 10,10 0,5.523 -4.477,10 -10,10 z"
       style="fill:#444444;fill-opacity:1" /><path
       inkscape:connector-curvature="0"
       id="path3099"
       d="m 43.000358,37.000358 c -3.314,0 -6,2.686 -6,6 0,3.314 2.686,6 6,6 3.314,0 6,-2.686 6,-6 0,-3.314 -2.686,-6 -6,-6 z m 0,9 c -1.657,0 -3,-1.343 -3,-3 0,-1.657 1.343,-3 3,-3 1.657,0 3,1.343 3,3 0,1.657 -1.343,3 -3,3 z"
       style="fill:#444444;fill-opacity:1" /><path
       inkscape:connector-curvature="0"
       id="path3101"
       d="m 23.255358,51.491358 -2.775,1.15 c 2.522,5.869 7.273,10.56 13.182,13.006 l 1.15,-2.775 c -5.177,-2.143 -9.34,-6.245 -11.557,-11.381 z"
       style="fill:#444444;fill-opacity:1" /><path
       inkscape:connector-curvature="0"
       id="path3103"
       d="m 62.871358,34.811358 2.776,-1.15 c -2.446,-5.909 -7.137,-10.66 -13.006,-13.182 l -1.15,2.775 c 5.136,2.218 9.238,6.381 11.38,11.557 z"
       style="fill:#444444;fill-opacity:1" /><path
       inkscape:connector-curvature="0"
       id="path3105"
       d="m 15.397358,54.746358 -2.772,1.148 c 3.385,7.944 9.8,14.296 17.784,17.604 l 1.148,-2.771 c -7.252,-3.004 -13.079,-8.77 -16.16,-15.981 z"
       style="fill:#444444;fill-opacity:1" /><path
       inkscape:connector-curvature="0"
       id="path3107"
       d="m 70.727358,31.557358 2.771,-1.148 c -3.308,-7.984 -9.66,-14.399 -17.604,-17.784 l -1.148,2.772 c 7.211,3.081 12.977,8.908 15.981,16.16 z"
       style="fill:#444444;fill-opacity:1" /><path
       inkscape:connector-curvature="0"
       id="path3109"
       d="m 86.000358,60.000358 h -38 c -1.1,0 -2,0.9 -2,2 v 14 c 0,1.1 0.9,2 2,2 h 38 c 1.1,0 2,-0.9 2,-2 v -14 c 0,-1.1 -0.9,-2 -2,-2 z m -25.263,11.354 c -0.224,0.739 -0.562,1.378 -1.016,1.915 -0.454,0.538 -1.02,0.961 -1.697,1.269 -0.678,0.309 -1.475,0.462 -2.393,0.462 h -5.175 v -11.995 h 5.175 c 0.772,0 1.492,0.124 2.158,0.37 0.666,0.246 1.243,0.616 1.73,1.108 0.487,0.493 0.868,1.108 1.143,1.848 0.275,0.74 0.411,1.607 0.411,2.604 0,0.874 -0.111,1.68 -0.336,2.419 z m 7.464,3.646 h -2.973 l -3.881,-11.995 h 2.704 l 2.672,8.434 h 0.033 l 2.705,-8.434 h 2.722 l -3.982,11.995 z m 15.456,-3.646 c -0.224,0.739 -0.562,1.378 -1.016,1.915 -0.454,0.538 -1.02,0.961 -1.697,1.269 -0.678,0.309 -1.476,0.462 -2.394,0.462 h -5.175 v -11.995 h 5.175 c 0.772,0 1.492,0.124 2.158,0.37 0.666,0.246 1.243,0.616 1.73,1.108 0.487,0.493 0.868,1.108 1.143,1.848 0.275,0.74 0.411,1.607 0.411,2.604 0.001,0.874 -0.11,1.68 -0.335,2.419 z"
       style="fill:#444444;fill-opacity:1" /><path
       inkscape:connector-curvature="0"
       id="path3111"
       d="m 57.679358,66.298358 c -0.269,-0.347 -0.624,-0.613 -1.066,-0.798 -0.442,-0.185 -0.988,-0.277 -1.638,-0.277 h -1.882 v 7.56 h 2.352 c 0.381,0 0.751,-0.061 1.109,-0.185 0.358,-0.123 0.678,-0.327 0.957,-0.613 0.28,-0.285 0.504,-0.657 0.672,-1.117 0.169,-0.459 0.253,-1.019 0.253,-1.68 0,-0.604 -0.06,-1.15 -0.177,-1.638 -0.118,-0.488 -0.31,-0.904 -0.58,-1.252 z"
       style="fill:#444444;fill-opacity:1" /><path
       inkscape:connector-curvature="0"
       id="path3113"
       d="m 80.599358,66.298358 c -0.269,-0.347 -0.624,-0.613 -1.066,-0.798 -0.442,-0.185 -0.988,-0.277 -1.638,-0.277 h -1.882 v 7.56 h 2.352 c 0.381,0 0.751,-0.061 1.109,-0.185 0.358,-0.123 0.678,-0.327 0.957,-0.613 0.28,-0.285 0.504,-0.657 0.672,-1.117 0.169,-0.459 0.253,-1.019 0.253,-1.68 0,-0.604 -0.06,-1.15 -0.177,-1.638 -0.118,-0.488 -0.31,-0.904 -0.58,-1.252 z"
       style="fill:#444444;fill-opacity:1" /></g></svg>