<?xml version="1.0" encoding="UTF-8" standalone="no"?>
<svg
   xmlns:dc="http://purl.org/dc/elements/1.1/"
   xmlns:cc="http://creativecommons.org/ns#"
   xmlns:rdf="http://www.w3.org/1999/02/22-rdf-syntax-ns#"
   xmlns:svg="http://www.w3.org/2000/svg"
   xmlns="http://www.w3.org/2000/svg"
   xmlns:sodipodi="http://sodipodi.sourceforge.net/DTD/sodipodi-0.dtd"
   xmlns:inkscape="http://www.inkscape.org/namespaces/inkscape"
   version="1.1"
   x="0px"
   y="0px"
   viewBox="0 0 63.651001 90.000999"
   enable-background="new 0 0 100 100"
   xml:space="preserve"
   id="svg8"
   sodipodi:docname="ebook.svg"
   inkscape:version="0.92.2 (30a58d1, 2017-08-07)"
   width="63.651001"
   height="90.000999"><metadata
     id="metadata14"><rdf:RDF><cc:Work
         rdf:about=""><dc:format>image/svg+xml</dc:format><dc:type
           rdf:resource="http://purl.org/dc/dcmitype/StillImage" /></cc:Work></rdf:RDF></metadata><defs
     id="defs12" /><sodipodi:namedview
     pagecolor="#ffffff"
     bordercolor="#666666"
     borderopacity="1"
     objecttolerance="10"
     gridtolerance="10"
     guidetolerance="10"
     inkscape:pageopacity="0"
     inkscape:pageshadow="2"
     inkscape:window-width="1680"
     inkscape:window-height="1026"
     id="namedview10"
     showgrid="false"
     inkscape:zoom="1.888"
     inkscape:cx="38.01377"
     inkscape:cy="-22.950647"
     inkscape:window-x="0"
     inkscape:window-y="173"
     inkscape:window-maximized="1"
     inkscape:current-layer="svg8" /><path
     d="m 29.547,79.112 h 4.302 v 4.166 H 29.547 Z M 54.735,71.99 H 8.66 V 8.445 H 54.735 Z M 18.902,15.927 c 0,0.553 0.447,1 1,1 h 23.666 c 0.553,0 1,-0.447 1,-1 0,-0.553 -0.447,-1 -1,-1 H 19.902 c -0.552,0 -1,0.448 -1,1 z m 31.333,48.778 c 0,-0.553 -0.447,-1 -1,-1 h -35 c -0.553,0 -1,0.447 -1,1 0,0.553 0.447,1 1,1 h 35 c 0.553,0 1,-0.448 1,-1 z m 0,-6 c 0,-0.553 -0.447,-1 -1,-1 h -35 c -0.553,0 -1,0.447 -1,1 0,0.553 0.447,1 1,1 h 35 c 0.553,0 1,-0.448 1,-1 z m 0,-6 c 0,-0.553 -0.447,-1 -1,-1 h -35 c -0.553,0 -1,0.447 -1,1 0,0.553 0.447,1 1,1 h 35 c 0.553,0 1,-0.448 1,-1 z m 0,-6 c 0,-0.553 -0.447,-1 -1,-1 h -35 c -0.553,0 -1,0.447 -1,1 0,0.553 0.447,1 1,1 h 35 c 0.553,0 1,-0.448 1,-1 z m 0,-5.807 c 0,-0.553 -0.447,-1 -1,-1 h -35 c -0.553,0 -1,0.447 -1,1 0,0.553 0.447,1 1,1 h 35 c 0.553,0 1,-0.447 1,-1 z m 0,-6 c 0,-0.553 -0.447,-1 -1,-1 h -35 c -0.553,0 -1,0.447 -1,1 0,0.553 0.447,1 1,1 h 35 c 0.553,0 1,-0.447 1,-1 z m 0,-6 c 0,-0.553 -0.447,-1 -1,-1 h -35 c -0.553,0 -1,0.447 -1,1 0,0.553 0.447,1 1,1 h 35 c 0.553,0 1,-0.447 1,-1 z m 0,-6 c 0,-0.553 -0.447,-1 -1,-1 h -35 c -0.553,0 -1,0.447 -1,1 0,0.553 0.447,1 1,1 h 35 c 0.553,0 1,-0.447 1,-1 z M 63.651,5.27 v 79.462 c 0,2.905 -2.363,5.269 -5.269,5.269 H 5.27 C 2.365,90.001 0,87.638 0,84.732 V 5.27 C 0,2.365 2.364,0 5.27,0 h 53.112 c 2.905,0.001 5.269,2.365 5.269,5.27 z M 18.402,82.195 h 5 c 0.553,0 1,-0.447 1,-1 0,-0.553 -0.447,-1 -1,-1 h -5 c -0.553,0 -1,0.447 -1,1 0,0.553 0.448,1 1,1 z m 10.865,3.083 h 4.863 c 0.947,0 1.719,-0.771 1.719,-1.719 V 78.83 c 0,-0.947 -0.771,-1.719 -1.719,-1.719 h -4.863 c -0.948,0 -1.72,0.771 -1.72,1.719 v 4.729 c 0,0.947 0.771,1.719 1.72,1.719 z m 10.51,-3.083 h 5 c 0.553,0 1,-0.447 1,-1 0,-0.553 -0.447,-1 -1,-1 h -5 c -0.553,0 -1,0.447 -1,1 0,0.553 0.448,1 1,1 z M 56.735,6.445 H 6.66 V 73.99 h 50.075 z"
     id="path2"
     style="fill:#444444;fill-opacity:1"
     inkscape:connector-curvature="0" /></svg>