<?xml version="1.0" encoding="UTF-8" standalone="no"?>
<svg
   xmlns:dc="http://purl.org/dc/elements/1.1/"
   xmlns:cc="http://creativecommons.org/ns#"
   xmlns:rdf="http://www.w3.org/1999/02/22-rdf-syntax-ns#"
   xmlns:svg="http://www.w3.org/2000/svg"
   xmlns="http://www.w3.org/2000/svg"
   xmlns:sodipodi="http://sodipodi.sourceforge.net/DTD/sodipodi-0.dtd"
   xmlns:inkscape="http://www.inkscape.org/namespaces/inkscape"
   version="1.1"
   x="0px"
   y="0px"
   viewBox="0 0 99.999999 100.02149"
   enable-background="new 0 0 128 128"
   xml:space="preserve"
   id="svg3125"
   inkscape:version="0.48.4 r9939"
   width="100%"
   height="100%"
   sodipodi:docname="electronic.svg"><metadata
     id="metadata3147"><rdf:RDF><cc:Work
         rdf:about=""><dc:format>image/svg+xml</dc:format><dc:type
           rdf:resource="http://purl.org/dc/dcmitype/StillImage" /></cc:Work></rdf:RDF></metadata><defs
     id="defs3145" /><sodipodi:namedview
     pagecolor="#ffffff"
     bordercolor="#666666"
     borderopacity="1"
     objecttolerance="10"
     gridtolerance="10"
     guidetolerance="10"
     inkscape:pageopacity="0"
     inkscape:pageshadow="2"
     inkscape:window-width="1627"
     inkscape:window-height="1026"
     id="namedview3143"
     showgrid="false"
     fit-margin-top="0"
     fit-margin-left="0"
     fit-margin-right="0"
     fit-margin-bottom="0"
     inkscape:zoom="1"
     inkscape:cx="-85.813561"
     inkscape:cy="46.999991"
     inkscape:window-x="53"
     inkscape:window-y="24"
     inkscape:window-maximized="1"
     inkscape:current-layer="svg3125"
     inkscape:showpageshadow="false" /><g
     id="g3127"
     transform="matrix(0.79365081,0,0,0.79365081,-0.79365245,-0.77215724)"
     style="fill:#444444;fill-opacity:1"><path
       d="M 96.4,69 V 5 C 86.2,-0.5 76.1,0.5 66,2.9 v 64 C 76.1,64.5 86.2,63.5 96.4,69 z M 71,13.7 c 6.1,-1.3 13.4,-2.3 21,0.6 1.3,0.5 1.9,1.9 1.4,3.2 -0.4,1 -1.3,1.6 -2.3,1.6 -0.3,0 -0.6,-0.1 -0.9,-0.2 -6.3,-2.4 -12.7,-1.6 -18.1,-0.4 -1.4,0.3 -2.7,-0.6 -3,-1.9 -0.3,-1.3 0.5,-2.6 1.9,-2.9 z m 0,12.8 c 6.1,-1.3 13.4,-2.3 21,0.6 1.3,0.5 1.9,1.9 1.4,3.2 -0.4,1 -1.3,1.6 -2.3,1.6 -0.3,0 -0.6,-0.1 -0.9,-0.2 -6.3,-2.4 -12.7,-1.6 -18.1,-0.4 -1.4,0.3 -2.7,-0.6 -3,-1.9 -0.3,-1.2 0.5,-2.6 1.9,-2.9 z m 0,12.8 c 6.1,-1.3 13.4,-2.3 21,0.6 1.3,0.5 1.9,1.9 1.4,3.2 -0.4,1 -1.3,1.6 -2.3,1.6 -0.3,0 -0.6,-0.1 -0.9,-0.2 C 83.9,42.2 77.5,43 72,44.2 c -1.4,0.3 -2.7,-0.6 -3,-1.9 -0.2,-1.3 0.6,-2.7 2,-3 z m -1.9,15.8 c -0.3,-1.3 0.6,-2.7 1.9,-3 6.1,-1.3 13.4,-2.3 21,0.6 1.3,0.5 1.9,1.9 1.4,3.2 -0.4,1 -1.3,1.6 -2.3,1.6 -0.3,0 -0.6,-0.1 -0.9,-0.2 C 83.9,55 77.5,55.9 72,57 70.7,57.3 69.4,56.5 69.1,55.1 z"
       id="path3129"
       inkscape:connector-curvature="0"
       style="fill:#444444;fill-opacity:1" /><path
       d="M 61,66.9 V 2.9 C 50.8,0.5 40.7,-0.5 30.6,5.1 v 64 C 40.7,63.5 50.8,64.5 61,66.9 z M 35.3,13.7 c 6.1,-1.3 13.4,-2.3 21,0.6 1.3,0.5 1.9,1.9 1.4,3.2 -0.4,1 -1.3,1.6 -2.3,1.6 -0.3,0 -0.6,-0.1 -0.9,-0.2 C 48.2,16.5 41.8,17.3 36.4,18.5 35,18.8 33.7,17.9 33.4,16.6 33.1,15.3 34,14 35.3,13.7 z m 0,12.8 c 6.1,-1.3 13.4,-2.3 21,0.6 1.3,0.5 1.9,1.9 1.4,3.2 -0.4,1 -1.3,1.6 -2.3,1.6 -0.3,0 -0.6,-0.1 -0.9,-0.2 -6.3,-2.4 -12.7,-1.6 -18.1,-0.4 -1.4,0.3 -2.7,-0.6 -3,-1.9 -0.3,-1.2 0.6,-2.6 1.9,-2.9 z m 0,12.8 c 6.1,-1.3 13.4,-2.3 21,0.6 1.3,0.5 1.9,1.9 1.4,3.2 -0.4,1 -1.3,1.6 -2.3,1.6 -0.3,0 -0.6,-0.1 -0.9,-0.2 C 48.2,42.1 41.8,42.9 36.4,44.1 35,44.4 33.7,43.5 33.4,42.2 33.1,41 34,39.6 35.3,39.3 z M 36.4,57 c -1.3,0.3 -2.7,-0.6 -3,-1.9 -0.3,-1.3 0.6,-2.7 1.9,-3 6.1,-1.3 13.4,-2.3 21,0.6 1.3,0.5 1.9,1.9 1.4,3.2 -0.4,1 -1.3,1.6 -2.3,1.6 -0.3,0 -0.6,-0.1 -0.9,-0.2 C 48.2,55 41.8,55.9 36.4,57 z"
       id="path3131"
       inkscape:connector-curvature="0"
       style="fill:#444444;fill-opacity:1" /><rect
       x="26.6"
       y="116.1"
       width="74.800003"
       height="10.9"
       id="rect3133"
       style="fill:#444444;fill-opacity:1" /><rect
       x="41.5"
       y="107.2"
       width="44.900002"
       height="3.8"
       id="rect3135"
       style="fill:#444444;fill-opacity:1" /><polygon
       points="127,102 127,26.7 101.5,26.7 101.5,36 116.9,36 116.9,91.1 11.1,91.1 11.1,36 25.5,36 25.5,26.7 1,26.7 1,102 "
       id="polygon3137"
       style="fill:#444444;fill-opacity:1" /></g></svg>