<?xml version="1.0" encoding="UTF-8" standalone="no"?>
<svg
   xmlns:dc="http://purl.org/dc/elements/1.1/"
   xmlns:cc="http://creativecommons.org/ns#"
   xmlns:rdf="http://www.w3.org/1999/02/22-rdf-syntax-ns#"
   xmlns:svg="http://www.w3.org/2000/svg"
   xmlns="http://www.w3.org/2000/svg"
   xmlns:sodipodi="http://sodipodi.sourceforge.net/DTD/sodipodi-0.dtd"
   xmlns:inkscape="http://www.inkscape.org/namespaces/inkscape"
   version="1.1"
   x="0px"
   y="0px"
   viewBox="0 0 100 129.59393"
   enable-background="new 0 0 100 100"
   xml:space="preserve"
   id="svg3079"
   inkscape:version="0.48.4 r9939"
   width="100%"
   height="100%"
   sodipodi:docname="html noun_91481_cc.svg"><metadata
     id="metadata3093"><rdf:RDF><cc:Work
         rdf:about=""><dc:format>image/svg+xml</dc:format><dc:type
           rdf:resource="http://purl.org/dc/dcmitype/StillImage" /></cc:Work></rdf:RDF></metadata><defs
     id="defs3091" /><sodipodi:namedview
     pagecolor="#ffffff"
     bordercolor="#666666"
     borderopacity="1"
     objecttolerance="10"
     gridtolerance="10"
     guidetolerance="10"
     inkscape:pageopacity="0"
     inkscape:pageshadow="2"
     inkscape:window-width="1627"
     inkscape:window-height="1026"
     id="namedview3089"
     showgrid="false"
     fit-margin-top="0"
     fit-margin-left="0"
     fit-margin-right="0"
     fit-margin-bottom="0"
     inkscape:showpageshadow="false"
     inkscape:zoom="1"
     inkscape:cx="-82.386593"
     inkscape:cy="31.397999"
     inkscape:window-x="53"
     inkscape:window-y="24"
     inkscape:window-maximized="1"
     inkscape:current-layer="svg3079" /><g
     id="g5445"
     transform="matrix(1.4760801,0,0,1.4760801,-23.803268,-9.0070417)"><polygon
       style="fill:#444444;fill-opacity:1"
       id="polygon3081"
       points="64.583,25.392 82.873,25.392 64.583,7.102 " /><path
       style="fill:#444444;fill-opacity:1"
       id="path3083"
       d="M 62.583,27.392 V 6.102 H 16.126 V 93.898 H 83.873 V 27.392 h -21.29 z m -23.511,31.276 -1.545,1.559 -9.524,-7.951 9.524,-7.951 1.545,1.573 -7.725,6.349 7.725,6.421 z m 6.931,4.379 H 43.65 l 9.723,-23.074 h 2.353 l -9.723,23.074 z m 16.47,-2.82 -1.531,-1.559 7.725,-6.364 -7.725,-6.406 1.531,-1.573 9.524,7.951 -9.524,7.951 z"
       inkscape:connector-curvature="0" /></g></svg>