<?xml version="1.0" encoding="UTF-8" standalone="no"?>
<svg
   xmlns:dc="http://purl.org/dc/elements/1.1/"
   xmlns:cc="http://creativecommons.org/ns#"
   xmlns:rdf="http://www.w3.org/1999/02/22-rdf-syntax-ns#"
   xmlns:svg="http://www.w3.org/2000/svg"
   xmlns="http://www.w3.org/2000/svg"
   xmlns:sodipodi="http://sodipodi.sourceforge.net/DTD/sodipodi-0.dtd"
   xmlns:inkscape="http://www.inkscape.org/namespaces/inkscape"
   version="1.1"
   x="0px"
   y="0px"
   viewBox="-7.125 -7.328 100 91.571"
   enable-background="new -7.125 -7.328 100 91.571"
   xml:space="preserve"
   id="svg3047"
   inkscape:version="0.48.4 r9939"
   width="100%"
   height="100%"
   sodipodi:docname="Film noun_16250_cc.svg"><metadata
     id="metadata3059"><rdf:RDF><cc:Work
         rdf:about=""><dc:format>image/svg+xml</dc:format><dc:type
           rdf:resource="http://purl.org/dc/dcmitype/StillImage" /></cc:Work></rdf:RDF></metadata><defs
     id="defs3057" /><sodipodi:namedview
     pagecolor="#ffffff"
     bordercolor="#666666"
     borderopacity="1"
     objecttolerance="10"
     gridtolerance="10"
     guidetolerance="10"
     inkscape:pageopacity="0"
     inkscape:pageshadow="2"
     inkscape:window-width="1627"
     inkscape:window-height="1026"
     id="namedview3055"
     showgrid="false"
     fit-margin-top="0"
     fit-margin-left="0"
     fit-margin-right="0"
     fit-margin-bottom="0"
     inkscape:showpageshadow="false"
     inkscape:zoom="1"
     inkscape:cx="-56.460988"
     inkscape:cy="34.339126"
     inkscape:window-x="53"
     inkscape:window-y="24"
     inkscape:window-maximized="1"
     inkscape:current-layer="svg3047" /><path
     d="m 86.088,-7.3280014 v 9.529 h -10.74 v -9.529 h -6.8 v 13.981 H 17.15 v -13.981 h -6.779 v 9.529 H -0.335 v -9.529 h -6.79 V 84.241999 h 6.79 v -9.623 h 10.707 v 9.623 h 6.779 v -13.894 h 51.397 v 13.895 h 6.8 v -9.623 h 10.74 v 9.623 h 6.787 V -7.3270014 l -6.787,-10e-4 0,0 z M 10.372,69.448999 H -0.335 v -9.615 h 10.707 v 9.615 z m 0,-16.115 H -0.335 v -9.535 h 10.707 v 9.535 z m 0,-17.736 H -0.335 v -9.523 h 10.707 v 9.523 z m 0,-17.898 H -0.335 V 8.1649986 h 10.707 v 9.5350004 z m 6.778,42.134 v -42.134 h 51.397 v 42.134 H 17.15 z m 68.938,9.615 h -10.74 v -9.615 h 10.74 v 9.615 z m 0,-16.115 h -10.74 v -9.535 h 10.74 v 9.535 z m 0,-17.736 h -10.74 v -9.523 h 10.74 v 9.523 z m 0,-17.898 H 75.348 V 8.1649986 h 10.74 v 9.5350004 z"
     id="path3049"
     style="fill:#444444;fill-opacity:1"
     inkscape:connector-curvature="0" /></svg>