<?xml version="1.0" encoding="UTF-8" standalone="no"?>
<svg
   xmlns:dc="http://purl.org/dc/elements/1.1/"
   xmlns:cc="http://creativecommons.org/ns#"
   xmlns:rdf="http://www.w3.org/1999/02/22-rdf-syntax-ns#"
   xmlns:svg="http://www.w3.org/2000/svg"
   xmlns="http://www.w3.org/2000/svg"
   xmlns:sodipodi="http://sodipodi.sourceforge.net/DTD/sodipodi-0.dtd"
   xmlns:inkscape="http://www.inkscape.org/namespaces/inkscape"
   version="1.1"
   x="0px"
   y="0px"
   viewBox="0 0 90.684448 149.99999"
   enable-background="new 0 0 100 100"
   xml:space="preserve"
   id="svg3095"
   inkscape:version="0.48.4 r9939"
   width="100%"
   height="100%"
   sodipodi:docname="Knight noun_11528_cc.svg"><metadata
     id="metadata3109"><rdf:RDF><cc:Work
         rdf:about=""><dc:format>image/svg+xml</dc:format><dc:type
           rdf:resource="http://purl.org/dc/dcmitype/StillImage" /></cc:Work></rdf:RDF></metadata><defs
     id="defs3107" /><sodipodi:namedview
     pagecolor="#ffffff"
     bordercolor="#666666"
     borderopacity="1"
     objecttolerance="10"
     gridtolerance="10"
     guidetolerance="10"
     inkscape:pageopacity="0"
     inkscape:pageshadow="2"
     inkscape:window-width="1627"
     inkscape:window-height="1026"
     id="namedview3105"
     showgrid="false"
     inkscape:zoom="1"
     inkscape:cx="-85.918593"
     inkscape:cy="37.687997"
     inkscape:window-x="53"
     inkscape:window-y="24"
     inkscape:window-maximized="1"
     inkscape:current-layer="svg3095"
     fit-margin-top="0"
     fit-margin-left="0"
     fit-margin-right="0"
     fit-margin-bottom="0"
     inkscape:showpageshadow="false" /><rect
     x="-84.360107"
     y="128.33104"
     width="74.819176"
     height="21.668959"
     id="rect3097"
     style="fill:#444444;fill-opacity:1"
     transform="scale(-1,1)" /><path
     d="M 83.846028,118.48885 C 82.097567,103.55819 77.541108,88.745585 66.688697,75.969866 59.676922,67.716235 42.779618,57.805303 37.090395,55.880501 c 5.638412,-0.748699 16.326439,-1.841114 24.18704,0.15243 4.837408,1.226912 17.281367,5.757965 22.429613,4.504155 4.375634,-1.065515 6.977404,-2.911113 6.977404,-9.314663 0,-9.026242 -4.154463,-11.205093 -8.373184,-14.476358 C 77.956555,33.368696 62.368356,21.277418 58.926727,18.608401 53.22555,14.186439 47.533339,10.480299 40.109106,10.601347 c -1.516827,0.02541 -3.635902,0 -3.635902,0 V -3.107875e-6 c 0,0 -15.881104,4.867295007875 -25.185306,14.846971107875 C -0.72118748,27.730284 -4.2136175,48.471212 6.0470025,68.777267 10.192492,76.980088 16.745488,85.371205 17.571895,95.022111 18.20702,102.42841 15.724807,111.31418 10.778306,118.48885 h 73.067722 z"
     id="path3099"
     style="fill:#444444;fill-opacity:1"
     inkscape:connector-curvature="0" /></svg>