<?xml version="1.0" encoding="UTF-8" standalone="no"?>
<svg
   xmlns:dc="http://purl.org/dc/elements/1.1/"
   xmlns:cc="http://creativecommons.org/ns#"
   xmlns:rdf="http://www.w3.org/1999/02/22-rdf-syntax-ns#"
   xmlns:svg="http://www.w3.org/2000/svg"
   xmlns="http://www.w3.org/2000/svg"
   xmlns:sodipodi="http://sodipodi.sourceforge.net/DTD/sodipodi-0.dtd"
   xmlns:inkscape="http://www.inkscape.org/namespaces/inkscape"
   version="1.1"
   x="0px"
   y="0px"
   viewBox="0 0 99.999998 68.614643"
   enable-background="new 0 0 100 68.5"
   xml:space="preserve"
   id="svg3167"
   inkscape:version="0.48.4 r9939"
   width="100%"
   height="100%"
   sodipodi:docname="journal.svg"><metadata
     id="metadata3203"><rdf:RDF><cc:Work
         rdf:about=""><dc:format>image/svg+xml</dc:format><dc:type
           rdf:resource="http://purl.org/dc/dcmitype/StillImage" /></cc:Work></rdf:RDF></metadata><defs
     id="defs3201" /><sodipodi:namedview
     pagecolor="#ffffff"
     bordercolor="#666666"
     borderopacity="1"
     objecttolerance="10"
     gridtolerance="10"
     guidetolerance="10"
     inkscape:pageopacity="0"
     inkscape:pageshadow="2"
     inkscape:window-width="1627"
     inkscape:window-height="1026"
     id="namedview3199"
     showgrid="false"
     fit-margin-top="0"
     fit-margin-left="0"
     fit-margin-right="0"
     fit-margin-bottom="0"
     inkscape:zoom="1"
     inkscape:cx="-34.738506"
     inkscape:cy="22.176486"
     inkscape:window-x="53"
     inkscape:window-y="24"
     inkscape:window-maximized="1"
     inkscape:current-layer="svg3167"
     inkscape:showpageshadow="false" /><g
     id="g3169"
     transform="matrix(1.1135857,0,0,1.1135857,-5.6792875,-3.7561649)"
     style="fill:#444444;fill-opacity:1"><path
       d="m 94.4,61 c -8.7,1.3 -33.7,-1 -35.3,-1 -7.4,0 -9.8,1.4 -9.8,1.4 0,0 -1.1,-2.1 -8.6,-1.9 -2.5,0.1 -31.3,4.5 -35.2,2.6 -0.2,1.2 -0.3,2 -0.4,2 2.6,2.8 33.1,-1.9 35.7,-2 7.4,-0.2 8.4,2 8.4,2 0,0 2.3,-2.4 9.7,-2.4 1.7,0 28.1,2 36,0.9 0,-0.1 -0.1,-0.4 -0.5,-1.6 z"
       id="path3171"
       inkscape:connector-curvature="0"
       style="fill:#444444;fill-opacity:1" /><path
       d="m 40.8,58.8 c 7.3,-0.4 8.6,1.8 8.6,1.8 0,0 2,-1.8 9.3,-1.8 1.6,0 27.9,2.7 35.2,1 C 93.6,58.3 83.8,6.9 83.7,6.1 76.3,7.2 60.2,3 54,3.4 c -4.9,0.3 -6.7,3.5 -6.7,3.5 0,0 -0.5,-3.7 -7.5,-3 C 34,4.9 17.2,9.3 10.6,8.5 10.4,10.1 5.7,60.4 5.7,61.1 8.2,62.5 38.2,58.9 40.8,58.8 z M 55,7.1 c 4.2,0 19.4,4.5 26.2,2.9 0.3,2 7.7,45 7.7,45.9 -18.8,0.1 -25.2,-2.7 -30.3,-2.6 -5,0.1 -7.5,1.6 -7.5,1.6 L 48.7,10.6 c 0,-0.1 2.1,-3.5 6.3,-3.5 z"
       id="path3173"
       inkscape:connector-curvature="0"
       style="fill:#444444;fill-opacity:1" /><path
       d="m 60.6,44.7 c 4.8,0 8.3,2.6 26.2,2.6 0,-0.3 -1,-7.1 -1.4,-7.7 -6.3,0.9 -22.8,-2.3 -26.8,-2.3 -4,0 -7.6,3.2 -7.6,3.2 l 0.5,6.5 c 0,-0.1 4.3,-2.3 9.1,-2.3 z"
       id="path3175"
       inkscape:connector-curvature="0"
       style="fill:#444444;fill-opacity:1" /><path
       d="m 59.3,46.9 c -1.1,-0.6 -2.2,-0.2 -3.1,0.7 -0.9,1 -0.9,2.8 0.7,3.6 0.7,0.4 1.7,0.4 2.8,-0.3 1,-0.7 1.3,-3.1 -0.4,-4 z"
       id="path3177"
       inkscape:connector-curvature="0"
       style="fill:#444444;fill-opacity:1" /><path
       d="m 65.3,47.5 c -1.2,0.4 -1.9,2.1 -0.8,3.5 0.5,0.7 1.4,1.3 2.6,1.2 1.2,-0.1 2.5,-2.1 1.2,-3.8 -0.8,-1.1 -1.9,-1.3 -3,-0.9 z"
       id="path3179"
       inkscape:connector-curvature="0"
       style="fill:#444444;fill-opacity:1" /><path
       d="m 72.8,48.8 c -1.2,0.4 -1.9,2.1 -0.8,3.5 0.5,0.7 1.4,1.3 2.6,1.2 1.2,-0.1 2.5,-2.1 1.2,-3.8 -0.7,-1.1 -1.8,-1.3 -3,-0.9 z"
       id="path3181"
       inkscape:connector-curvature="0"
       style="fill:#444444;fill-opacity:1" /><path
       d="m 80,49.7 c -1.1,0.8 -1.3,2.6 0.1,3.6 0.7,0.5 1.6,0.8 2.8,0.3 1.1,-0.5 1.8,-2.8 0.3,-4 C 82.1,48.8 81,48.9 80,49.7 z"
       id="path3183"
       inkscape:connector-curvature="0"
       style="fill:#444444;fill-opacity:1" /><path
       d="m 82.7,31.3 c -0.1,-0.2 -0.2,-0.8 -0.3,-1.3 -3.8,0.3 -11,-0.7 -15.2,-2 0,0.3 0.1,1.4 0.2,1.7 2.7,1.2 14.3,2 15.3,1.6 z"
       id="path3185"
       inkscape:connector-curvature="0"
       style="fill:#444444;fill-opacity:1" /><path
       d="M 83.1,34.2 C 83,34 82.9,33.4 82.8,32.9 c -3.8,0.3 -11,-0.7 -15.2,-2 0,0.3 0.1,1.4 0.2,1.7 2.7,1.2 14.3,1.9 15.3,1.6 z"
       id="path3187"
       inkscape:connector-curvature="0"
       style="fill:#444444;fill-opacity:1" /><path
       d="m 83.6,37.1 c -0.1,-0.2 -0.2,-0.8 -0.3,-1.3 -3.8,0.3 -11,-0.7 -15.2,-2 0,0.3 0.1,1.4 0.2,1.7 2.6,1.2 14.2,2 15.3,1.6 z"
       id="path3189"
       inkscape:connector-curvature="0"
       style="fill:#444444;fill-opacity:1" /><path
       d="m 63.2,26.6 c 0,0 -6.5,-2 -9.8,0.8 -0.5,0.4 -1.5,1.1 -1.5,2.2 l 0.3,5.2 c 0.1,1.1 0.9,2.4 1.7,1.9 3,-2 8.6,-1 9.8,-0.8 0.9,-0.1 1.5,-1.1 1.5,-2.2 l -0.3,-5.2 c 0,-1.1 -0.7,-1.5 -1.7,-1.9 z"
       id="path3191"
       inkscape:connector-curvature="0"
       style="fill:#444444;fill-opacity:1" /><path
       d="m 83.3,26.3 c 0,-0.3 -2.2,-13.5 -2.5,-14.1 -6.3,0.9 -21.2,-3 -25.2,-3 -4,0 -6.2,3.5 -6.2,3.5 L 50.3,26 c 0,0 3.8,-3 8.6,-3 4.8,-0.1 6.6,3.3 24.4,3.3 z M 66.6,13.6 c 1.8,0.5 2.8,1.8 3.2,3 1,2.7 -0.6,4.8 -2.5,4.7 -1.8,-0.1 -3.3,-1 -4,-3 -1.1,-3.1 1.5,-5.2 3.3,-4.7 z"
       id="path3193"
       inkscape:connector-curvature="0"
       style="fill:#444444;fill-opacity:1" /></g></svg>