<?xml version="1.0" encoding="UTF-8" standalone="no"?>
<svg
   xmlns:dc="http://purl.org/dc/elements/1.1/"
   xmlns:cc="http://creativecommons.org/ns#"
   xmlns:rdf="http://www.w3.org/1999/02/22-rdf-syntax-ns#"
   xmlns:svg="http://www.w3.org/2000/svg"
   xmlns="http://www.w3.org/2000/svg"
   xmlns:sodipodi="http://sodipodi.sourceforge.net/DTD/sodipodi-0.dtd"
   xmlns:inkscape="http://www.inkscape.org/namespaces/inkscape"
   version="1.1"
   x="0px"
   y="0px"
   viewBox="0 0 99.999999 122.21463"
   enable-background="new 0 0 50 50"
   xml:space="preserve"
   id="svg3111"
   inkscape:version="0.48.4 r9939"
   width="100%"
   height="100%"
   sodipodi:docname="quill noun_36568_cc.svg"><metadata
     id="metadata3137"><rdf:RDF><cc:Work
         rdf:about=""><dc:format>image/svg+xml</dc:format><dc:type
           rdf:resource="http://purl.org/dc/dcmitype/StillImage" /></cc:Work></rdf:RDF></metadata><defs
     id="defs3135" /><sodipodi:namedview
     pagecolor="#ffffff"
     bordercolor="#666666"
     borderopacity="1"
     objecttolerance="10"
     gridtolerance="10"
     guidetolerance="10"
     inkscape:pageopacity="0"
     inkscape:pageshadow="2"
     inkscape:window-width="1627"
     inkscape:window-height="1026"
     id="namedview3133"
     showgrid="false"
     fit-margin-top="0"
     fit-margin-left="0"
     fit-margin-right="0"
     fit-margin-bottom="0"
     inkscape:showpageshadow="false"
     inkscape:zoom="1"
     inkscape:cx="-38.472296"
     inkscape:cy="17.983997"
     inkscape:window-x="53"
     inkscape:window-y="24"
     inkscape:window-maximized="1"
     inkscape:current-layer="svg3111" /><g
     id="g3113"
     transform="matrix(2.5215593,0,0,2.5215593,-13.47017,-1.93182)"
     style="fill:#444444;fill-opacity:1"><g
       id="g3115"
       style="fill:#444444;fill-opacity:1"><path
         d="m 9.407,42.715 1.965,-1.512 15.896,-24.488 c -3.761,2.984 -17.861,26 -17.861,26 z"
         id="path3117"
         inkscape:connector-curvature="0"
         style="fill:#444444;fill-opacity:1" /><path
         d="m 31.373,4.071 c -0.34,0.238 -0.668,0.476 -0.932,0.787 -2.307,2.712 -3.389,7.532 -3.389,7.532 -0.371,-1.163 0.342,-3.597 1.025,-5.479 -4.781,4.31 -9.017,8.217 -11.189,12.563 -1.464,2.929 -1.776,6.33 -1.776,6.33 l -0.135,-3.39 C 7.777,34.259 8.164,43.17 8.164,43.17 L 5.342,49.234 7.409,47.101 8.784,44.719 10.075,42.79 C 21.587,36.862 29.461,24.41 29.461,24.41 L 25.04,24.566 C 32.658,21.795 39.096,8.288 39.096,8.288 46.053,-4.706 33.174,2.808 31.373,4.071 z m -20.269,37.108 -0.736,-0.49 c 0,0 13.139,-20.989 16.899,-23.974 L 11.104,41.179 z"
         id="path3119"
         inkscape:connector-curvature="0"
         style="fill:#444444;fill-opacity:1" /></g><g
       id="g3121"
       style="fill:#444444;fill-opacity:1"><rect
         x="32"
         y="30"
         width="8"
         height="3"
         id="rect3123"
         style="fill:#444444;fill-opacity:1" /><rect
         x="26"
         y="39"
         width="19"
         height="9"
         id="rect3125"
         style="fill:#444444;fill-opacity:1" /><polygon
         points="25.829,37.95 31.008,34 39.363,34 44.658,37.807 "
         id="polygon3127"
         style="fill:#444444;fill-opacity:1" /></g></g></svg>