<?xml version="1.0" encoding="UTF-8" standalone="no"?>
<svg
   xmlns:dc="http://purl.org/dc/elements/1.1/"
   xmlns:cc="http://creativecommons.org/ns#"
   xmlns:rdf="http://www.w3.org/1999/02/22-rdf-syntax-ns#"
   xmlns:svg="http://www.w3.org/2000/svg"
   xmlns="http://www.w3.org/2000/svg"
   xmlns:sodipodi="http://sodipodi.sourceforge.net/DTD/sodipodi-0.dtd"
   xmlns:inkscape="http://www.inkscape.org/namespaces/inkscape"
   version="1.1"
   x="0px"
   y="0px"
   viewBox="0 0 99.999998 76.932999"
   enable-background="new 0 0 100 100"
   xml:space="preserve"
   id="svg3205"
   inkscape:version="0.48.4 r9939"
   width="100%"
   height="100%"
   sodipodi:docname="map.svg"><metadata
     id="metadata3233"><rdf:RDF><cc:Work
         rdf:about=""><dc:format>image/svg+xml</dc:format><dc:type
           rdf:resource="http://purl.org/dc/dcmitype/StillImage" /></cc:Work></rdf:RDF></metadata><defs
     id="defs3231" /><sodipodi:namedview
     pagecolor="#ffffff"
     bordercolor="#666666"
     borderopacity="1"
     objecttolerance="10"
     gridtolerance="10"
     guidetolerance="10"
     inkscape:pageopacity="0"
     inkscape:pageshadow="2"
     inkscape:window-width="1627"
     inkscape:window-height="1026"
     id="namedview3229"
     showgrid="false"
     fit-margin-top="0"
     fit-margin-left="0"
     fit-margin-right="0"
     fit-margin-bottom="0"
     inkscape:zoom="1"
     inkscape:cx="-75.529662"
     inkscape:cy="25.966999"
     inkscape:window-x="53"
     inkscape:window-y="24"
     inkscape:window-maximized="1"
     inkscape:current-layer="svg3205"
     inkscape:showpageshadow="false" /><g
     id="g3207"
     transform="translate(-8.7269018e-7,-11.534)"
     style="fill:#444444;fill-opacity:1"><g
       id="g3209"
       style="fill:#444444;fill-opacity:1"><g
         id="g3211"
         style="fill:#444444;fill-opacity:1"><polygon
           points="50.652,28.447 50.339,29.838 49.136,30.877 52.613,31.262 52.234,27.935 "
           id="polygon3213"
           style="fill:#444444;fill-opacity:1" /><polygon
           points="48.143,37.479 48.662,38.9 51.811,40.634 55.35,42.73 56.076,40.664 52.32,38.928 50.67,36.043 51.063,37.791 49.982,38.43 49.982,37.672 47.719,34.86 45.097,36.584 "
           id="polygon3215"
           style="fill:#444444;fill-opacity:1" /><polygon
           points="57.461,38.623 54.527,35.777 53.809,37.785 56.957,39.332 "
           id="polygon3217"
           style="fill:#444444;fill-opacity:1" /><path
           d="M 33.954,11.534 V 75.84 L 66.047,88.467 V 24.159 L 33.954,11.534 z m 1.565,4.193 9.008,3.544 -2.76,3.472 -4.758,-0.165 -1.048,1.297 -0.442,-0.295 v -7.853 z m 17.001,7.145 -2.091,0.886 -0.859,-2.048 2.95,1.162 z m -5.861,7.754 -1.438,0.4 -1.265,-1.119 0.5,-1.162 0.199,-1.528 0.888,0.047 1.116,3.362 z m -3.37,-5.347 -1.903,-0.977 1.524,-0.426 0.379,1.403 z m 15.037,41.462 2.094,-4.308 -0.283,4.902 -1.811,-0.594 z M 35.676,50.65 35.518,51.058 v -0.625 l 0.158,0.217 z m 27.406,-2.204 -0.663,2.13 -3.81,1.352 2.382,1.733 -3.615,5.184 -0.188,4.71 -2.953,4.649 -3.143,-0.324 c 0,0 -2.092,-7.772 -1.997,-8.078 0.095,-0.303 -0.382,-8.009 -0.665,-8.352 -0.287,-0.341 -5.618,-3.005 -5.618,-3.005 l -2.188,-7.926 3.712,-4.007 -1.047,-3.146 1.808,-1 3.426,-2.182 -0.666,-2.085 3.711,-2.642 3.236,2.184 9.678,1.293 v 20.478 l -1.4,-0.966 z"
           id="path3219"
           inkscape:connector-curvature="0"
           style="fill:#444444;fill-opacity:1" /></g><path
         d="M 67.908,24.156 V 88.458 L 100,76.131 V 11.827 L 67.908,24.156 z m 20.171,9.324 1.544,3.721 -2.831,2.016 1.461,-2.205 -0.174,-3.532 z m 1.655,33.374 -2.569,-1.177 c 0,0 -5.142,2.201 -5.235,2.58 -0.096,0.379 0.571,-5.12 0.571,-5.12 l 5.327,-5.92 c 0,0 3.714,-1.654 3.809,-2.029 0.096,-0.379 2.666,5.469 2.666,5.469 l -4.569,6.197 z m 7.423,-2.166 -2.095,3.992 -1.144,-0.357 3.239,-3.635 z m -5.985,-10.502 -2.75,-0.795 c 0.26,-0.203 2.922,-1.637 2.922,-1.637 l 2.488,0.691 -2.66,1.741 z m -4.037,-5.029 -0.855,0.946 -1.289,-4.851 2.144,3.905 z m -1.376,2.79 0.688,2.816 -1.805,0.077 1.117,-2.893 z m -2.314,3.153 -1.461,-0.572 2.23,-4.146 0.518,2.782 -1.287,1.936 z m 1.457,1.698 -3.691,0.29 -3.005,-2.341 -0.085,-1.201 2.916,2.065 3.865,1.187 z M 70.51,27.873 80.218,26.307 c 0,0 13.229,-2.575 12.847,-2.429 -0.248,0.095 -2.903,3.335 -2.903,3.335 l 0.192,2.743 -0.979,-0.142 -1.825,-1.424 -2.856,0.755 -0.666,2.421 2.854,1.525 -3.43,5.759 0.765,4.377 -2.858,4.629 -0.283,2.957 -1.428,2.26 -0.666,-0.314 -2.854,-5.512 -2.95,4.096 -0.57,3.864 -2.666,-5.356 -0.465,0.04 V 28.539 l 1.033,-0.666 z"
         id="path3221"
         inkscape:connector-curvature="0"
         style="fill:#444444;fill-opacity:1" /><path
         d="M 0,24.153 V 88.452 L 32.091,76.329 V 12.03 L 0,24.153 z m 28.917,-2.794 -0.954,2.069 -1.617,0.611 -1.713,-0.15 -4.377,4.275 1.711,0.946 2.381,-2.95 3.046,-1.149 1.142,2.873 -3.807,4.398 -3.616,4.215 -2,3.262 -0.093,2.313 -3.237,-0.486 -2.282,2.23 0.76,2.789 2.094,-1.819 2.569,3.818 2.76,-2.525 5.901,1.531 2.942,1.764 v 6.833 l -0.182,0.613 c 0,0 -4.093,8.725 -3.998,8.231 0.096,-0.491 -1.426,3.616 -1.426,3.616 L 25.872,71.952 23.017,70.867 21.209,59.93 18.07,55.309 18.735,49.585 14.357,48.051 11.216,47.754 8.17,41.844 c 0,0 0.952,-5.374 1.236,-5.597 0.286,-0.22 -0.189,-4.029 -0.189,-4.029 L 3.886,35.371 3.602,33.77 c 0,0 6.185,-6.893 6.09,-6.515 -0.095,0.378 5.995,-1.239 5.995,-1.239 l 3.235,-2.931 5.71,-3.067 2.474,-2.531 3.419,-1.29 v 2.479 l -1.134,-0.457 -2.666,2.259 2.192,0.881 z m -6.757,21.579 -1.428,1.678 -2.953,-0.822 4.381,-0.856 z"
         id="path3223"
         inkscape:connector-curvature="0"
         style="fill:#444444;fill-opacity:1" /></g></g></svg>