<?xml version="1.0" encoding="UTF-8" standalone="no"?>
<svg
   xmlns:dc="http://purl.org/dc/elements/1.1/"
   xmlns:cc="http://creativecommons.org/ns#"
   xmlns:rdf="http://www.w3.org/1999/02/22-rdf-syntax-ns#"
   xmlns:svg="http://www.w3.org/2000/svg"
   xmlns="http://www.w3.org/2000/svg"
   xmlns:sodipodi="http://sodipodi.sourceforge.net/DTD/sodipodi-0.dtd"
   xmlns:inkscape="http://www.inkscape.org/namespaces/inkscape"
   version="1.1"
   x="0px"
   y="0px"
   viewBox="0 0 100 110.82673"
   enable-background="new 0 0 100 100"
   xml:space="preserve"
   id="svg3235"
   inkscape:version="0.48.4 r9939"
   width="100%"
   height="100%"
   sodipodi:docname="microform.svg"><metadata
     id="metadata3253"><rdf:RDF><cc:Work
         rdf:about=""><dc:format>image/svg+xml</dc:format><dc:type
           rdf:resource="http://purl.org/dc/dcmitype/StillImage" /></cc:Work></rdf:RDF></metadata><defs
     id="defs3251" /><sodipodi:namedview
     pagecolor="#ffffff"
     bordercolor="#666666"
     borderopacity="1"
     objecttolerance="10"
     gridtolerance="10"
     guidetolerance="10"
     inkscape:pageopacity="0"
     inkscape:pageshadow="2"
     inkscape:window-width="1627"
     inkscape:window-height="1026"
     id="namedview3249"
     showgrid="false"
     fit-margin-top="0"
     fit-margin-left="0"
     fit-margin-right="0"
     fit-margin-bottom="0"
     inkscape:zoom="1.888"
     inkscape:cx="-70.760593"
     inkscape:cy="37.128006"
     inkscape:window-x="53"
     inkscape:window-y="24"
     inkscape:window-maximized="1"
     inkscape:current-layer="svg3235"
     inkscape:showpageshadow="false"
     showborder="true" /><g
     id="g5938"
     transform="scale(1.1124055,1.1124055)"><rect
       style="fill:#444444;fill-opacity:1"
       id="rect3237"
       height="6.2319999"
       width="14.721"
       y="11.576"
       x="63.917" /><rect
       style="fill:#444444;fill-opacity:1"
       id="rect3239"
       height="18.972"
       width="16.148001"
       y="11.558"
       x="42.519001" /><rect
       style="fill:#444444;fill-opacity:1"
       id="rect3241"
       height="6.23"
       width="14.721"
       y="24.254"
       x="63.917" /><path
       style="fill:#444444;fill-opacity:1"
       inkscape:connector-curvature="0"
       id="path3243"
       d="M 89.894,2.586 V 0 H 31.842 V 2.261 C 31.826,2.375 31.774,2.478 31.774,2.596 V 34.981 H 10.206 v 0.002 C 4.584,35.004 0.034,39.682 0.019,45.462 L 0,45.49 v 50.639 c 0,1.761 1.172,3.192 2.617,3.192 h 0.002 v 0.307 H 55.4 c 1.445,0 2.617,-1.161 2.617,-2.595 V 79.851 h 21.28 c 5.852,0 10.598,-4.705 10.598,-10.513 V 2.597 C 89.896,2.592 89.894,2.59 89.894,2.586 z M 54.35,40.188 c -0.916,1.559 -1.481,3.347 -1.481,5.28 l -0.032,1.701 H 46.14 v -1.913 c 0.078,-2.592 2.024,-4.698 4.555,-5.068 H 54.35 z M 5.236,64.394 h 6.631 v 6.581 H 5.236 v -6.581 z m 40.903,0 h 6.626 l 0.007,6.581 h -6.633 v -6.581 z m 6.616,-12.015 0.004,6.807 h -6.62 v -6.807 h 6.616 z M 11.867,59.186 H 5.236 v -6.807 h 6.631 v 6.807 z m -6.631,17 h 6.631 v 6.579 H 5.236 v -6.579 z m 6.631,11.789 v 6.441 H 5.236 v -6.441 h 6.631 z m 34.272,0 h 6.645 v 6.441 h -6.645 v -6.441 z m 6.642,-5.21 h -6.643 v -6.579 h 6.638 l 0.005,6.579 z M 10.226,40.188 h 1.641 v 6.98 H 5.236 v -2.95 c 0.556,-2.311 2.571,-4.03 4.99,-4.03 z m 47.792,10.002 0.084,-4.723 c 0,-2.927 2.396,-5.302 5.346,-5.302 2.954,0 5.343,2.375 5.343,5.302 l -0.084,23.871 c 0,1.951 0.569,3.755 1.504,5.32 H 58.018 V 50.19 z M 84.63,69.338 c 0,2.929 -2.391,5.302 -5.343,5.302 -2.952,0 -5.348,-2.373 -5.348,-5.302 l 0.021,-5.607 c 0.003,-0.023 0.014,-0.044 0.014,-0.069 l 0.084,-18.194 c 0,-5.706 -4.591,-10.326 -10.308,-10.481 l 0.003,-0.004 h -0.051 c -0.079,-0.005 -0.157,-0.025 -0.238,-0.025 -0.083,0 -0.161,0.021 -0.24,0.025 H 51.482 v -0.081 c -0.27,0 -0.522,0.06 -0.787,0.081 H 37.012 V 5.193 H 84.66 v 64.145 h -0.03 z" /></g></svg>