<?xml version="1.0" encoding="UTF-8" standalone="no"?>
<svg
   xmlns:dc="http://purl.org/dc/elements/1.1/"
   xmlns:cc="http://creativecommons.org/ns#"
   xmlns:rdf="http://www.w3.org/1999/02/22-rdf-syntax-ns#"
   xmlns:svg="http://www.w3.org/2000/svg"
   xmlns="http://www.w3.org/2000/svg"
   xmlns:sodipodi="http://sodipodi.sourceforge.net/DTD/sodipodi-0.dtd"
   xmlns:inkscape="http://www.inkscape.org/namespaces/inkscape"
   version="1.1"
   x="0px"
   y="0px"
   viewBox="0 0 100 69.156668"
   enable-background="new 0 0 64 64"
   xml:space="preserve"
   id="svg2"
   inkscape:version="0.48.4 r9939"
   width="100%"
   height="100%"
   sodipodi:docname="audiobook noun_108321_cc.svg"><metadata
     id="metadata22"><rdf:RDF><cc:Work
         rdf:about=""><dc:format>image/svg+xml</dc:format><dc:type
           rdf:resource="http://purl.org/dc/dcmitype/StillImage" /></cc:Work></rdf:RDF></metadata><defs
     id="defs20" /><sodipodi:namedview
     pagecolor="#ffffff"
     bordercolor="#666666"
     borderopacity="1"
     objecttolerance="10"
     gridtolerance="10"
     guidetolerance="10"
     inkscape:pageopacity="0"
     inkscape:pageshadow="2"
     inkscape:window-width="1627"
     inkscape:window-height="1026"
     id="namedview18"
     showgrid="false"
     inkscape:showpageshadow="false"
     fit-margin-top="0"
     fit-margin-left="0"
     fit-margin-right="0"
     fit-margin-bottom="0"
     inkscape:zoom="1"
     inkscape:cx="-44.40678"
     inkscape:cy="-1.6508525"
     inkscape:window-x="53"
     inkscape:window-y="24"
     inkscape:window-maximized="1"
     inkscape:current-layer="svg2" /><g
     id="g4"
     transform="matrix(1.6666667,0,0,1.6666667,-3.3333334,-18.755001)"
     style="fill:#444444;fill-opacity:1"><g
       id="g6"
       style="fill:#444444;fill-opacity:1"><path
         d="m 47.52,11.253 c -7.998,0 -14.481,6.484 -14.481,14.48 0,7.999 6.483,14.481 14.481,14.481 7.997,0 14.48,-6.482 14.48,-14.481 0,-7.995 -6.483,-14.48 -14.48,-14.48 z m 7.3,3.899 -3.688,4.26 c -2.05,-1.313 -4.918,-0.736 -4.918,-0.736 l -1.312,-5.901 c 6.557,-0.902 9.918,2.377 9.918,2.377 z m -15.734,20.666 3.935,-4.261 0.68,0.628 -3.935,4.262 -0.68,-0.629 z m 1.367,1.014 3.437,-4.465 c 2.121,1.192 4.952,0.451 4.952,0.451 l 1.648,5.817 C 43.996,39.912 40.453,36.832 40.453,36.832 z m 7.067,-4.776 c -3.492,0 -6.323,-2.83 -6.323,-6.322 0,-3.491 2.831,-6.322 6.323,-6.322 3.491,0 6.322,2.831 6.322,6.322 0,3.492 -2.831,6.322 -6.322,6.322 z m 4.623,-11.755 -0.68,-0.628 3.934,-4.262 0.68,0.627 -3.934,4.263 z"
         id="path8"
         inkscape:connector-curvature="0"
         style="fill:#444444;fill-opacity:1" /><path
         d="m 47.52,21.214 c -2.496,0 -4.52,2.024 -4.52,4.52 0,2.496 2.023,4.52 4.52,4.52 2.497,0 4.519,-2.023 4.519,-4.52 -0.001,-2.495 -2.023,-4.52 -4.519,-4.52 z m 0,7.623 c -1.714,0 -3.104,-1.389 -3.104,-3.104 0,-1.713 1.39,-3.102 3.104,-3.102 1.713,0 3.102,1.389 3.102,3.102 -10e-4,1.716 -1.39,3.104 -3.102,3.104 z"
         id="path10"
         inkscape:connector-curvature="0"
         style="fill:#444444;fill-opacity:1" /></g><path
       d="m 47.52,42.051 c -1.309,0 -2.574,-0.17 -3.793,-0.461 v 5.166 c -3.013,-0.949 -6.099,-1.43 -9.189,-1.43 -4.05,0 -7.146,0.82 -8.773,1.371 v -25.34 c 2.218,-1.204 4.511,-1.949 6.847,-2.234 0.289,-0.654 0.627,-1.28 0.997,-1.884 -2.994,0.179 -5.925,1.048 -8.736,2.583 h 0 0 c -3.174,-1.732 -6.5,-2.621 -9.896,-2.621 -6.057,0 -10.182,2.777 -10.355,2.896 l -0.388,0.267 v 2.011 L 2,24.25 v 23.415 4.082 1 h 22.872 22.872 v -1 -4.082 -5.625 c -0.076,10e-4 -0.149,0.011 -0.224,0.011 z m -23.541,4.646 c -1.627,-0.551 -4.723,-1.371 -8.772,-1.371 -3.091,0 -6.177,0.48 -9.189,1.43 V 21.332 c 1.101,-0.641 4.458,-2.346 8.958,-2.346 3.08,0 6.106,0.798 9.004,2.371 v 25.34 z"
       id="path12"
       inkscape:connector-curvature="0"
       style="fill:#444444;fill-opacity:1" /></g></svg>