<?xml version="1.0" encoding="UTF-8" standalone="no"?>
<svg
   xmlns:dc="http://purl.org/dc/elements/1.1/"
   xmlns:cc="http://creativecommons.org/ns#"
   xmlns:rdf="http://www.w3.org/1999/02/22-rdf-syntax-ns#"
   xmlns:svg="http://www.w3.org/2000/svg"
   xmlns="http://www.w3.org/2000/svg"
   xmlns:sodipodi="http://sodipodi.sourceforge.net/DTD/sodipodi-0.dtd"
   xmlns:inkscape="http://www.inkscape.org/namespaces/inkscape"
   version="1.1"
   x="0px"
   y="0px"
   viewBox="0 0 99.999998 110.20256"
   enable-background="new 0 0 48 48"
   xml:space="preserve"
   id="svg3255"
   inkscape:version="0.48.4 r9939"
   width="100%"
   height="100%"
   sodipodi:docname="music.svg"><metadata
     id="metadata3267"><rdf:RDF><cc:Work
         rdf:about=""><dc:format>image/svg+xml</dc:format><dc:type
           rdf:resource="http://purl.org/dc/dcmitype/StillImage" /></cc:Work></rdf:RDF></metadata><defs
     id="defs3265" /><sodipodi:namedview
     pagecolor="#ffffff"
     bordercolor="#666666"
     borderopacity="1"
     objecttolerance="10"
     gridtolerance="10"
     guidetolerance="10"
     inkscape:pageopacity="0"
     inkscape:pageshadow="2"
     inkscape:window-width="1627"
     inkscape:window-height="1026"
     id="namedview3263"
     showgrid="false"
     fit-margin-top="0"
     fit-margin-left="0"
     fit-margin-right="0"
     fit-margin-bottom="0"
     inkscape:zoom="1"
     inkscape:cx="-34.420758"
     inkscape:cy="17.539222"
     inkscape:window-x="53"
     inkscape:window-y="24"
     inkscape:window-maximized="1"
     inkscape:current-layer="svg3255"
     inkscape:showpageshadow="false" /><path
     d="m 27.60809,15.930904 c -0.468556,0 -0.937112,0.468557 -0.937112,1.171391 v 19.445077 43.575714 c 0,0.702835 -0.468556,1.171391 -1.171391,1.171391 -3.982727,0 -8.902565,1.405668 -13.353848,3.982726 -9.6053997,5.622673 -14.5252385,14.759517 -11.0110678,20.382187 3.2798924,5.85695 13.8224038,6.09123 23.1935258,0.46856 7.496898,-4.21701 12.182459,-10.776791 12.182459,-16.399464 h 0 V 35.141704 c 0,-0.468557 0.234277,-0.937113 0.937111,-1.17139 L 88.754661,22.49069 c 0.702827,-0.234278 1.405663,0.468555 1.405663,1.17139 v 40.061544 c 0,0.702834 -0.468552,1.17139 -1.171387,1.17139 -3.982728,0 -8.902568,1.405669 -13.353847,3.982727 -9.605402,5.622673 -14.525241,14.759516 -11.01107,20.382189 3.279892,5.856951 13.822403,6.091229 23.193522,0.468556 C 95.314446,85.511481 100,78.951696 100,73.329023 h 0 V 19.913631 1.1713862 C 100,0.46855119 99.297167,-8.1495008e-7 98.594332,-8.1495008e-7 L 27.60809,15.930904 z"
     id="path3257"
     inkscape:connector-curvature="0"
     style="fill:#444444;fill-opacity:1" /></svg>