<?xml version="1.0" encoding="UTF-8" standalone="no"?>
<svg
   xmlns:dc="http://purl.org/dc/elements/1.1/"
   xmlns:cc="http://creativecommons.org/ns#"
   xmlns:rdf="http://www.w3.org/1999/02/22-rdf-syntax-ns#"
   xmlns:svg="http://www.w3.org/2000/svg"
   xmlns="http://www.w3.org/2000/svg"
   xmlns:sodipodi="http://sodipodi.sourceforge.net/DTD/sodipodi-0.dtd"
   xmlns:inkscape="http://www.inkscape.org/namespaces/inkscape"
   version="1.1"
   x="0px"
   y="0px"
   viewBox="0 0 99.999999 94.819"
   enable-background="new 0 0 100 100"
   xml:space="preserve"
   id="svg3269"
   inkscape:version="0.48.4 r9939"
   width="100%"
   height="100%"
   sodipodi:docname="newspaper.svg"><metadata
     id="metadata3285"><rdf:RDF><cc:Work
         rdf:about=""><dc:format>image/svg+xml</dc:format><dc:type
           rdf:resource="http://purl.org/dc/dcmitype/StillImage" /></cc:Work></rdf:RDF></metadata><defs
     id="defs3283" /><sodipodi:namedview
     pagecolor="#ffffff"
     bordercolor="#666666"
     borderopacity="1"
     objecttolerance="10"
     gridtolerance="10"
     guidetolerance="10"
     inkscape:pageopacity="0"
     inkscape:pageshadow="2"
     inkscape:window-width="1627"
     inkscape:window-height="1026"
     id="namedview3281"
     showgrid="false"
     fit-margin-top="0"
     fit-margin-left="0"
     fit-margin-right="0"
     fit-margin-bottom="0"
     inkscape:zoom="1.888"
     inkscape:cx="-152.09746"
     inkscape:cy="97.361239"
     inkscape:window-x="53"
     inkscape:window-y="24"
     inkscape:window-maximized="1"
     inkscape:current-layer="svg3269"
     inkscape:showpageshadow="false" /><g
     id="g3271"
     transform="translate(-3.9858012e-7,-2.8239992)"
     style="fill:#444444;fill-opacity:1"><g
       id="g3273"
       style="fill:#444444;fill-opacity:1"><path
         d="M 66.836,13.185 H 12.445 c -1.152,0 -2.083,0.932 -2.083,2.083 v 23.309 c 0,1.152 0.932,2.083 2.083,2.083 h 54.391 c 1.151,0 2.083,-0.932 2.083,-2.083 V 15.269 c 0,-1.152 -0.932,-2.084 -2.083,-2.084 z m 31.081,5.178 H 79.28 V 4.907 c 0,-1.151 -0.932,-2.083 -2.083,-2.083 H 2.083 C 0.932,2.823 0,3.755 0,4.907 V 85.2 c 0,6.86 5.583,12.443 12.445,12.443 H 87.554 C 94.417,97.644 100,92.061 100,85.2 V 20.446 c 0,-1.151 -0.932,-2.083 -2.083,-2.083 z M 12.445,93.477 c -4.565,0 -8.279,-3.713 -8.279,-8.276 0,-0.077 0.021,-0.148 0.022,-0.226 H 4.167 V 6.99 H 75.115 V 85.2 c 0,3.179 1.208,6.074 3.177,8.276 H 12.445 z m 83.388,-8.502 h -0.022 c 0.002,0.077 0.022,0.148 0.022,0.226 0,4.563 -3.713,8.276 -8.278,8.276 -4.563,0 -8.274,-3.713 -8.274,-8.276 0,-0.077 0.021,-0.148 0.022,-0.226 H 79.28 V 53.542 c 0.162,0.04 0.33,0.068 0.505,0.068 h 7.77 c 1.151,0 2.084,-0.932 2.084,-2.083 0,-1.151 -0.933,-2.083 -2.084,-2.083 h -7.77 c -0.175,0 -0.343,0.028 -0.505,0.069 v -6.328 c 0.162,0.041 0.33,0.068 0.505,0.068 h 7.77 c 1.151,0 2.084,-0.932 2.084,-2.083 0,-1.152 -0.933,-2.083 -2.084,-2.083 h -7.77 c -0.175,0 -0.343,0.028 -0.505,0.069 v -6.333 c 0.162,0.041 0.33,0.069 0.505,0.069 h 7.77 c 1.151,0 2.084,-0.932 2.084,-2.083 0,-1.152 -0.933,-2.083 -2.084,-2.083 h -7.77 c -0.175,0 -0.343,0.028 -0.505,0.068 V 22.53 H 95.833 V 84.975 z M 12.498,51.642 h 22.917 c 1.152,0 2.083,-0.932 2.083,-2.083 0,-1.152 -0.932,-2.083 -2.083,-2.083 H 12.498 c -1.151,0 -2.083,0.932 -2.083,2.083 0,1.15 0.932,2.083 2.083,2.083 z m 31.25,0 h 22.917 c 1.151,0 2.083,-0.932 2.083,-2.083 0,-1.152 -0.932,-2.083 -2.083,-2.083 H 43.748 c -1.151,0 -2.083,0.932 -2.083,2.083 0,1.15 0.932,2.083 2.083,2.083 z m -8.331,4.166 H 12.5 c -1.151,0 -2.083,0.933 -2.083,2.084 0,1.151 0.932,2.083 2.083,2.083 h 22.917 c 1.152,0 2.083,-0.932 2.083,-2.083 0,-1.151 -0.932,-2.084 -2.083,-2.084 z m 31.25,0 H 43.75 c -1.151,0 -2.083,0.933 -2.083,2.084 0,1.151 0.932,2.083 2.083,2.083 h 22.917 c 1.151,0 2.083,-0.932 2.083,-2.083 0,-1.151 -0.932,-2.084 -2.083,-2.084 z m -31.25,8.334 H 12.5 c -1.151,0 -2.083,0.932 -2.083,2.083 0,1.151 0.932,2.083 2.083,2.083 h 22.917 c 1.152,0 2.083,-0.932 2.083,-2.083 0,-1.151 -0.932,-2.083 -2.083,-2.083 z m 31.25,0 H 43.75 c -1.151,0 -2.083,0.932 -2.083,2.083 0,1.151 0.932,2.083 2.083,2.083 h 22.917 c 1.151,0 2.083,-0.932 2.083,-2.083 0,-1.151 -0.932,-2.083 -2.083,-2.083 z m -31.25,8.333 H 12.5 c -1.151,0 -2.083,0.932 -2.083,2.083 0,1.151 0.932,2.084 2.083,2.084 h 22.917 c 1.152,0 2.083,-0.933 2.083,-2.084 0,-1.151 -0.932,-2.083 -2.083,-2.083 z m 31.25,0 H 43.75 c -1.151,0 -2.083,0.932 -2.083,2.083 0,1.151 0.932,2.084 2.083,2.084 h 22.917 c 1.151,0 2.083,-0.933 2.083,-2.084 0,-1.151 -0.932,-2.083 -2.083,-2.083 z"
         id="path3275"
         inkscape:connector-curvature="0"
         style="fill:#444444;fill-opacity:1" /></g></g></svg>