<?xml version="1.0" encoding="UTF-8" standalone="no"?>
<svg
   xmlns:dc="http://purl.org/dc/elements/1.1/"
   xmlns:cc="http://creativecommons.org/ns#"
   xmlns:rdf="http://www.w3.org/1999/02/22-rdf-syntax-ns#"
   xmlns:svg="http://www.w3.org/2000/svg"
   xmlns="http://www.w3.org/2000/svg"
   xmlns:sodipodi="http://sodipodi.sourceforge.net/DTD/sodipodi-0.dtd"
   xmlns:inkscape="http://www.inkscape.org/namespaces/inkscape"
   version="1.1"
   x="0px"
   y="0px"
   viewBox="0 0 79.86865 150"
   enable-background="new 0 0 100 100"
   xml:space="preserve"
   id="svg3287"
   inkscape:version="0.48.4 r9939"
   width="100%"
   height="100%"
   sodipodi:docname="poster.svg"><metadata
     id="metadata3403"><rdf:RDF><cc:Work
         rdf:about=""><dc:format>image/svg+xml</dc:format><dc:type
           rdf:resource="http://purl.org/dc/dcmitype/StillImage" /></cc:Work></rdf:RDF></metadata><defs
     id="defs3401" /><sodipodi:namedview
     pagecolor="#ffffff"
     bordercolor="#666666"
     borderopacity="1"
     objecttolerance="10"
     gridtolerance="10"
     guidetolerance="10"
     inkscape:pageopacity="0"
     inkscape:pageshadow="2"
     inkscape:window-width="1627"
     inkscape:window-height="1026"
     id="namedview3399"
     showgrid="false"
     fit-margin-top="0"
     fit-margin-left="0"
     fit-margin-right="0"
     fit-margin-bottom="0"
     inkscape:zoom="1"
     inkscape:cx="-68.100436"
     inkscape:cy="3.9820107"
     inkscape:window-x="53"
     inkscape:window-y="24"
     inkscape:window-maximized="1"
     inkscape:current-layer="g3387"
     inkscape:showpageshadow="false" /><g
     id="g3383"
     transform="translate(-23.817,51.998003)"><rect
       x="28.135"
       y="25.200001"
       width="42.400002"
       height="47.52"
       id="rect3385"
       style="fill:none" /><g
       id="g3387"><g
         id="g4409"
         transform="matrix(1.5624675,0,0,1.5624675,-13.396288,-55.122938)"><rect
           style="fill:none"
           id="rect3389"
           height="47.52"
           width="42.400002"
           y="25.200001"
           x="28.135" /><circle
           d="m 56.960999,9.8330002 c 0,4.3260468 -3.506954,7.8329998 -7.833001,7.8329998 -4.326046,0 -7.833,-3.506953 -7.833,-7.8329998 C 41.294998,5.5069536 44.801952,2 49.127998,2 c 4.326047,0 7.833001,3.5069536 7.833001,7.8330002 z"
           style="fill:#444444;fill-opacity:1"
           sodipodi:ry="7.8330002"
           sodipodi:rx="7.8330002"
           sodipodi:cy="9.8330002"
           sodipodi:cx="49.127998"
           id="circle3391"
           r="7.8330002"
           cy="9.8330002"
           cx="49.127998" /><path
           style="fill:#444444;fill-opacity:1"
           inkscape:connector-curvature="0"
           id="path3393"
           d="m 71.896,42.32 c -0.137,0 -0.268,0.021 -0.399,0.04 V 24.24 H 66.258 C 64.85,21.381 62.201,19.299 58.313,19.299 L 40.757,19.291 c -3.663,0 -6.405,1.985 -7.856,4.949 h -5.724 v 18.103 c -0.105,-0.013 -0.21,-0.023 -0.319,-0.023 -1.679,0 -3.041,1.361 -3.041,3.041 0,1.68 1.361,3.04 3.041,3.04 0.109,0 0.214,-0.01 0.319,-0.023 V 73.682 H 39.87 L 39.868,93.61 c 0,2.424 1.968,4.392 4.391,4.392 2.428,0 4.393,-1.968 4.393,-4.392 l 0.002,-19.928 h 1.951 L 50.6,93.608 c 0,2.424 1.965,4.392 4.39,4.392 2.425,0 4.39,-1.968 4.39,-4.392 L 59.387,73.68 H 71.496 V 48.36 c 0.132,0.019 0.263,0.04 0.399,0.04 1.679,0 3.039,-1.36 3.039,-3.04 0,-1.68 -1.36,-3.04 -3.038,-3.04 z m -1.361,30.4 h -42.4 V 25.2 h 42.4 v 47.52 z" /></g></g></g></svg>