<?xml version="1.0" encoding="UTF-8" standalone="no"?>
<svg
   xmlns:dc="http://purl.org/dc/elements/1.1/"
   xmlns:cc="http://creativecommons.org/ns#"
   xmlns:rdf="http://www.w3.org/1999/02/22-rdf-syntax-ns#"
   xmlns:svg="http://www.w3.org/2000/svg"
   xmlns="http://www.w3.org/2000/svg"
   xmlns:sodipodi="http://sodipodi.sourceforge.net/DTD/sodipodi-0.dtd"
   xmlns:inkscape="http://www.inkscape.org/namespaces/inkscape"
   version="1.1"
   viewBox="0 0 100 133.33334"
   xml:space="preserve"
   x="0px"
   y="0px"
   id="svg3061"
   inkscape:version="0.48.4 r9939"
   width="100%"
   height="100%"
   sodipodi:docname="Help Document noun_102049_cc.svg"><metadata
     id="metadata3077"><rdf:RDF><cc:Work
         rdf:about=""><dc:format>image/svg+xml</dc:format><dc:type
           rdf:resource="http://purl.org/dc/dcmitype/StillImage" /></cc:Work></rdf:RDF></metadata><defs
     id="defs3075" /><sodipodi:namedview
     pagecolor="#ffffff"
     bordercolor="#666666"
     borderopacity="1"
     objecttolerance="10"
     gridtolerance="10"
     guidetolerance="10"
     inkscape:pageopacity="0"
     inkscape:pageshadow="2"
     inkscape:window-width="1627"
     inkscape:window-height="1026"
     id="namedview3073"
     showgrid="false"
     inkscape:showpageshadow="false"
     fit-margin-top="0"
     fit-margin-left="0"
     fit-margin-right="0"
     fit-margin-bottom="0"
     inkscape:zoom="1"
     inkscape:cx="-74.411188"
     inkscape:cy="37.719296"
     inkscape:window-x="53"
     inkscape:window-y="24"
     inkscape:window-maximized="1"
     inkscape:current-layer="svg3061" /><g
     id="g5449"
     transform="matrix(1.1947601,0,0,1.3275112,-9.7380035,0.29110571)"
     style="fill:#444444;fill-opacity:1"><path
       id="path3063"
       d="m 8.1505932,100.21929 83.6988138,0 0,-82.899039 -17.483713,-17.53953914 -66.2151008,0 m 2.9354028,3.29132214 60.047479,0 0,17.240466 17.554494,0 -0.274024,76.615466 -77.327949,0.08353 z"
       inkscape:connector-curvature="0"
       style="fill:#444444;fill-opacity:1" /><g
       id="g3065"
       transform="translate(-2.4426708,11.224)"
       style="fill:#444444;fill-opacity:1"><path
         id="path3067"
         d="m 54.03,71.383 -10.008,0 0,-10.009 10.008,0 z m 6.922,-25.06 c -4.144,1.583 -6.801,4.637 -6.801,9.194 l -10.251,0 c 0,-11.616 7.412,-15.111 12.133,-16.251 2.895,-0.699 5.68,-1.612 5.837,-5.55 0.127,-3.175 -1.732,-7.088 -9.608,-6.931 -8.728,0.175 -9.312,6.569 -9.34,8.69 l -10.251,0.127 c -0.013,-0.696 0.004,-6.946 4.86,-11.901 3.597,-3.671 8.696,-5.532 15.155,-5.532 15.059,0 18.809,9.585 19.039,14.646 0.384,8.462 -6.272,11.789 -10.773,13.508 z"
         inkscape:connector-curvature="0"
         style="fill:#444444;fill-opacity:1" /></g></g></svg>