<?xml version="1.0" encoding="UTF-8" standalone="no"?>
<!-- Created with Inkscape (http://www.inkscape.org/) -->

<svg
   xmlns:dc="http://purl.org/dc/elements/1.1/"
   xmlns:cc="http://creativecommons.org/ns#"
   xmlns:rdf="http://www.w3.org/1999/02/22-rdf-syntax-ns#"
   xmlns:svg="http://www.w3.org/2000/svg"
   xmlns="http://www.w3.org/2000/svg"
   xmlns:sodipodi="http://sodipodi.sourceforge.net/DTD/sodipodi-0.dtd"
   xmlns:inkscape="http://www.inkscape.org/namespaces/inkscape"
   width="29.683928mm"
   height="17.810356mm"
   viewBox="0 0 29.683928 17.810356"
   version="1.1"
   id="svg8"
   inkscape:version="0.92.3 (unknown)"
   sodipodi:docname="videocassette.svg"
   inkscape:export-filename="/home/mbirkner/AkSearch/AKsearchIcons/Angepasst/png/videocassette.png"
   inkscape:export-xdpi="533.33423"
   inkscape:export-ydpi="533.33423">
  <defs
     id="defs2" />
  <sodipodi:namedview
     id="base"
     pagecolor="#ffffff"
     bordercolor="#666666"
     borderopacity="1.0"
     inkscape:pageopacity="0.0"
     inkscape:pageshadow="2"
     inkscape:zoom="1.979899"
     inkscape:cx="50.38879"
     inkscape:cy="-54.000176"
     inkscape:document-units="mm"
     inkscape:current-layer="g3756"
     showgrid="false"
     inkscape:window-width="1680"
     inkscape:window-height="995"
     inkscape:window-x="0"
     inkscape:window-y="209"
     inkscape:window-maximized="1" />
  <metadata
     id="metadata5">
    <rdf:RDF>
      <cc:Work
         rdf:about="">
        <dc:format>image/svg+xml</dc:format>
        <dc:type
           rdf:resource="http://purl.org/dc/dcmitype/StillImage" />
        <dc:title></dc:title>
      </cc:Work>
    </rdf:RDF>
  </metadata>
  <g
     inkscape:label="Ebene 1"
     inkscape:groupmode="layer"
     id="layer1"
     transform="translate(-49.390835,-33.669623)">
    <g
       id="g3756"
       transform="matrix(0.26458333,0,0,0.26458333,49.390835,38.779979)">
      <path
         id="path3715"
         d="M 74.794144,3.1235125 H 37.397072 V 36.780877 H 74.794144 Z M 69.184583,33.04117 h -26.17795 a 1.8698536,1.8698536 0 0 1 0,-3.739707 h 26.17795 a 1.8698536,1.8698536 0 0 1 0,3.739707 z m 0,-7.479414 h -26.17795 a 1.869854,1.869854 0 0 1 0,-3.739708 h 26.17795 a 1.869854,1.869854 0 0 1 0,3.739708 z m 0,-7.479415 h -26.17795 a 1.8698536,1.8698536 0 0 1 0,-3.739707 h 26.17795 a 1.8698536,1.8698536 0 0 1 0,3.739707 z m 0,-7.479414 h -26.17795 a 1.8698536,1.8698536 0 0 1 0,-3.7397073 h 26.17795 a 1.8698537,1.8698537 0 0 1 0,3.7397073 z"
         inkscape:connector-curvature="0"
         style="fill:#444444;fill-opacity:1;stroke-width:1.86985362" />
      <path
         id="path3717"
         d="m 33.657365,36.668686 v -7.554209 a 9.3515866,9.3515866 0 0 1 0,-18.324565 V 3.2357038 a 16.819763,16.819763 0 0 0 0,33.4329822 z"
         inkscape:connector-curvature="0"
         style="fill:#444444;fill-opacity:1;stroke-width:1.86985362" />
      <path
         id="path3719"
         d="m 82.273558,19.952195 a 5.6290073,5.6290073 0 0 0 -3.739707,-5.272987 v 10.545974 a 5.6291194,5.6291194 0 0 0 3.739707,-5.272987 z"
         inkscape:connector-curvature="0"
         style="fill:#444444;fill-opacity:1;stroke-width:1.86985362" />
      <path
         id="path3721"
         d="M 97.232387,19.952195 A 20.522915,20.522915 0 0 1 88.444075,36.780877 H 100.97209 V 3.1235125 H 88.444075 a 20.522746,20.522746 0 0 1 8.788312,16.8286825 z"
         inkscape:connector-curvature="0"
         style="fill:#444444;fill-opacity:1;stroke-width:1.86985362" />
      <path
         id="path3723"
         d="M 108.45151,-19.314731 H 3.7397072 A 3.7506832,3.7506832 0 0 0 0,-15.575023 v 7.479414 h 112.19122 v -7.479414 a 3.7506832,3.7506832 0 0 0 -3.73971,-3.739708 z"
         inkscape:connector-curvature="0"
         style="fill:#444444;fill-opacity:1;stroke-width:1.86985362" />
      <path
         id="path3725"
         d="M 93.49268,19.952195 A 16.857964,16.857964 0 0 0 78.533851,3.2357038 v 7.5542082 a 9.3515866,9.3515866 0 0 1 0,18.324565 v 7.554209 A 16.857964,16.857964 0 0 0 93.49268,19.952195 Z"
         inkscape:connector-curvature="0"
         style="fill:#444444;fill-opacity:1;stroke-width:1.86985362" />
      <path
         id="path3727"
         d="m 0,44.260292 a 3.750758,3.750758 0 0 0 3.7397072,3.739707 H 108.45151 a 3.750758,3.750758 0 0 0 3.73971,-3.739707 V -4.3559018 H 0 Z M 7.4794144,3.1235125 A 3.7506832,3.7506832 0 0 1 11.219122,-0.61619465 H 100.97209 A 3.7506832,3.7506832 0 0 1 104.7118,3.1235125 V 36.780877 a 3.750758,3.750758 0 0 1 -3.73971,3.739707 H 11.219122 A 3.750758,3.750758 0 0 1 7.4794144,36.780877 Z"
         inkscape:connector-curvature="0"
         style="fill:#444444;fill-opacity:1;stroke-width:1.86985362" />
      <path
         id="path3729"
         d="M 14.958829,19.952195 A 20.522746,20.522746 0 0 1 23.747141,3.1235125 H 11.219122 V 36.780877 H 23.747141 A 20.522915,20.522915 0 0 1 14.958829,19.952195 Z"
         inkscape:connector-curvature="0"
         style="fill:#444444;fill-opacity:1;stroke-width:1.86985362" />
      <path
         id="path3731"
         d="m 29.917657,19.952195 a 5.6291194,5.6291194 0 0 0 3.739708,5.272987 V 14.679208 a 5.6290073,5.6290073 0 0 0 -3.739708,5.272987 z"
         inkscape:connector-curvature="0"
         style="fill:#444444;fill-opacity:1;stroke-width:1.86985362" />
    </g>
  </g>
</svg>
