<?xml version="1.0" encoding="UTF-8" standalone="no"?>
<svg
   xmlns:dc="http://purl.org/dc/elements/1.1/"
   xmlns:cc="http://creativecommons.org/ns#"
   xmlns:rdf="http://www.w3.org/1999/02/22-rdf-syntax-ns#"
   xmlns:svg="http://www.w3.org/2000/svg"
   xmlns="http://www.w3.org/2000/svg"
   xmlns:sodipodi="http://sodipodi.sourceforge.net/DTD/sodipodi-0.dtd"
   xmlns:inkscape="http://www.inkscape.org/namespaces/inkscape"
   version="1.1"
   x="0px"
   y="0px"
   viewBox="0 0 100 97.913196"
   enable-background="new 0 0 512 512"
   xml:space="preserve"
   id="svg3405"
   inkscape:version="0.48.4 r9939"
   width="100%"
   height="100%"
   sodipodi:docname="video.svg"><metadata
     id="metadata3421"><rdf:RDF><cc:Work
         rdf:about=""><dc:format>image/svg+xml</dc:format><dc:type
           rdf:resource="http://purl.org/dc/dcmitype/StillImage" /><dc:title></dc:title></cc:Work></rdf:RDF></metadata><defs
     id="defs3419" /><sodipodi:namedview
     pagecolor="#ffffff"
     bordercolor="#666666"
     borderopacity="1"
     objecttolerance="10"
     gridtolerance="10"
     guidetolerance="10"
     inkscape:pageopacity="0"
     inkscape:pageshadow="2"
     inkscape:window-width="1627"
     inkscape:window-height="1026"
     id="namedview3417"
     showgrid="false"
     fit-margin-top="0"
     fit-margin-left="0"
     fit-margin-right="0"
     fit-margin-bottom="0"
     inkscape:zoom="1"
     inkscape:cx="-91.87678"
     inkscape:cy="-9.0619707"
     inkscape:window-x="53"
     inkscape:window-y="24"
     inkscape:window-maximized="1"
     inkscape:current-layer="svg3405"
     inkscape:showpageshadow="false" /><g
     id="g3407"
     transform="matrix(0.19532204,0,0,0.19532204,-0.00254394,-1.0457386)"
     style="fill:#444444;fill-opacity:1"><path
       d="M 511.737,189.898 H 170.41 L 510.956,111.245 493.582,35.873 C 488.707,14.748 467.864,1.53 447.022,6.343 L 30.043,102.652 C 12.324,106.745 0.294,122.557 0.075,140.213 H 0.013 l 0.094,327.152 c 0,21.687 17.563,39.28 39.217,39.28 h 433.447 c 21.654,0 39.217,-17.596 39.217,-39.28 L 511.737,189.898 z M 402.368,47.186 l 67.436,44.03 -51.997,12 -67.437,-44 51.998,-12.03 z m -104.902,24.249 67.436,44.03 -51.998,12 -67.434,-44 51.996,-12.03 z m -102.369,23.654 67.435,44.03 -51.998,12 -67.434,-44.03 51.997,-12 z m -104.62,24.157 67.403,44.029 -51.998,12 L 38.48,131.277 90.477,119.246 z M 472.739,467.365 H 39.229 V 229.084 h 433.51 v 238.281 z"
       id="path3409"
       inkscape:connector-curvature="0"
       style="fill:#444444;fill-opacity:1" /><polygon
       points="317.122,349.838 215.096,286.091 215.096,413.617 "
       id="polygon3411"
       style="fill:#444444;fill-opacity:1" /></g></svg>